<?xml version="1.0" encoding="UTF-8" standalone="no"?>
<svg
   xmlns:dc="http://purl.org/dc/elements/1.1/"
   xmlns:cc="http://creativecommons.org/ns#"
   xmlns:rdf="http://www.w3.org/1999/02/22-rdf-syntax-ns#"
   xmlns:svg="http://www.w3.org/2000/svg"
   xmlns="http://www.w3.org/2000/svg"
   viewBox="0 0 990 765"
   height="765"
   width="990"
   xml:space="preserve"
   version="1.1"
   id="svg2"><metadata
     id="metadata8"><rdf:RDF><cc:Work
         rdf:about=""><dc:format>image/svg+xml</dc:format><dc:type
           rdf:resource="http://purl.org/dc/dcmitype/StillImage" /></cc:Work></rdf:RDF></metadata><defs
     id="defs6"><clipPath
       id="clipPath16"
       clipPathUnits="userSpaceOnUse"><path
         id="path18"
         d="M 0,612 792,612 792,0 0,0 0,612 Z" /></clipPath></defs><g
     transform="matrix(1.25,0,0,-1.25,0,765)"
     id="g10"><g
       id="g12"><g
         clip-path="url(#clipPath16)"
         id="g14"><g
           transform="translate(61.7212,227.1279)"
           id="g20"><path
             id="path22"
             style="fill:#5f83c1;fill-opacity:1;fill-rule:nonzero;stroke:none"
             d="M 0,0 C 118.129,110.098 148.54,59.315 148.54,59.315 L 89.308,157.621 0,0 Z" /></g><g
           transform="translate(276.9497,308.9766)"
           id="g24"><path
             id="path26"
             style="fill:#373535;fill-opacity:1;fill-rule:nonzero;stroke:none"
             d="m 0,0 c 1.282,1.504 4.438,3.185 9.509,4.977 5.042,1.819 8.56,3.52 10.567,5.089 l 0,-16.296 c -1.468,-2.156 -3.474,-3.826 -6.017,-4.988 -2.536,-1.188 -4.959,-1.781 -7.254,-1.781 -5.839,0 -8.756,2.617 -8.756,7.863 0,1.905 0.632,3.623 1.951,5.136 m 21.441,-15.794 c 1.243,-2.685 3.165,-4.635 5.756,-5.86 2.591,-1.243 6.184,-1.858 10.837,-1.858 l 3.566,0 0.686,12.054 c -2.154,0 -3.575,0.464 -4.337,1.383 -0.734,0.938 -1.115,2.86 -1.115,5.775 l 0,25.869 c 0,7.123 -2.087,12.601 -6.293,16.428 -4.18,3.816 -10.92,5.719 -20.179,5.719 -9.248,0 -16.11,-1.838 -20.576,-5.526 -4.467,-3.657 -6.695,-8.755 -6.695,-15.273 l 0,-1.959 15.962,0 0,2.542 c 0,2.815 0.751,4.951 2.238,6.446 1.513,1.467 4.225,2.21 8.218,2.21 7.028,0.037 10.567,-2.462 10.567,-7.485 0,-2.433 -1.143,-4.354 -3.409,-5.72 C 14.383,17.559 10.445,16.018 4.8,14.252 -4.467,11.431 -10.724,8.449 -13.994,5.395 c -3.278,-3.092 -4.92,-7.196 -4.92,-12.314 0,-5.096 1.792,-9.284 5.404,-12.571 3.62,-3.287 8.031,-4.94 13.26,-4.94 5.198,0 9.628,0.826 13.286,2.46 3.651,1.644 6.454,3.705 8.405,6.176" /></g><g
           transform="translate(371.9102,290.1133)"
           id="g28"><path
             id="path30"
             style="fill:#373535;fill-opacity:1;fill-rule:nonzero;stroke:none"
             d="m 0,0 c 4.188,3.696 6.268,8.32 6.268,13.826 0,5.526 -1.143,9.834 -3.407,12.916 -2.266,3.093 -6.185,5.469 -11.738,7.169 l -13.872,4.271 c -3.111,0.919 -4.644,2.739 -4.644,5.443 0,2.69 0.745,4.604 2.184,5.709 1.467,1.133 3.796,1.681 7.001,1.681 3.23,0 4.596,0.074 18.737,-0.929 L 0.64,60.653 c -2.311,0.594 -10.083,1.922 -18.524,1.922 -17.094,0 -25.692,-6.111 -25.777,-18.302 l 0,-0.492 c 0,-4.429 1.049,-8.172 3.167,-11.254 2.108,-3.083 5.682,-5.395 10.716,-6.945 l 14.773,-4.494 c 3.798,-1.188 5.701,-3.417 5.701,-6.704 0,-0.492 -0.046,-0.993 -0.139,-1.57 -0.697,-4.578 -3.705,-6.89 -9.007,-6.89 -6.918,0 -14.309,0.818 -22.146,4.068 l -3.435,-11.255 c 6.89,-3.417 15.617,-4.307 26.213,-4.307 7.715,0 13.649,1.856 17.818,5.57" /></g><g
           transform="translate(421.2832,285.2119)"
           id="g32"><path
             id="path34"
             style="fill:#373535;fill-opacity:1;fill-rule:nonzero;stroke:none"
             d="m 0,0 0.631,12.304 -1.996,0 c -5.636,0 -9.452,0.706 -11.44,2.116 -1.968,1.431 -2.961,4.169 -2.961,8.218 l 0,32.907 15.97,0 0,10.539 -15.97,0 0,27.922 -16.612,-6.936 0,-65.603 c 0,-8.31 1.8,-13.946 6.23,-16.954 C -21.737,1.513 -14.412,0 -4.178,0 L 0,0 Z" /></g><g
           transform="translate(474.7598,286.0156)"
           id="g36"><path
             id="path38"
             style="fill:#373535;fill-opacity:1;fill-rule:nonzero;stroke:none"
             d="m 0,0 c 10.27,2.628 15.387,9.183 15.387,19.713 l 0,25.74 c 0,6.638 -2.574,11.839 -7.689,15.599 -5.127,3.742 -12.294,5.618 -21.506,5.618 -9.173,0 -16.342,-1.857 -21.45,-5.59 -5.116,-3.723 -7.67,-8.95 -7.67,-15.627 l 0,-25.74 c 0,-14.122 9.742,-21.18 29.167,-21.18 5.33,0 9.926,0.484 13.761,1.467 m -22.86,12.09 c -2.044,1.384 -3.037,3.677 -3.037,6.881 l 0,27.216 c 0,5.943 4.039,8.923 12.136,8.923 4.002,0 7.03,-0.679 9.063,-2.061 2.043,-1.393 3.063,-3.677 3.063,-6.862 l 0,-27.216 c 0,-5.961 -4.038,-8.942 -12.126,-8.942 -4.049,0 -7.075,0.696 -9.099,2.061" /></g><g
           transform="translate(545.6436,285.9512)"
           id="g40"><path
             id="path42"
             style="fill:#373535;fill-opacity:1;fill-rule:nonzero;stroke:none"
             d="m 0,0 15.998,0 0,65.351 -16.991,0 0,-44.069 c 0,-3.352 -1.356,-5.906 -4.003,-7.624 -2.683,-1.726 -5.673,-2.591 -8.961,-2.591 -3.287,0 -6.082,0.762 -8.356,2.304 -2.256,1.541 -3.399,3.862 -3.399,7.01 l 0,44.97 -17.028,0 0,-47.644 c 0,-5.516 1.939,-10.084 5.821,-13.706 3.881,-3.592 9.183,-5.403 15.896,-5.403 4.68,0 8.915,0.761 12.759,2.284 3.834,1.513 6.424,3.611 7.763,6.287 L 0,0 Z" /></g><g
           transform="translate(617.1533,285.9512)"
           id="g44"><path
             id="path46"
             style="fill:#373535;fill-opacity:1;fill-rule:nonzero;stroke:none"
             d="m 0,0 17.03,0 0,46.835 c 0,5.721 -1.757,10.484 -5.22,14.31 -3.49,3.807 -9.052,5.71 -16.676,5.71 -7.641,0 -14.337,-2.423 -20.029,-7.289 l 0,5.785 -17.021,0 0,-65.351 17.021,0 0,44.719 c 0,2.998 1.329,5.349 4.002,7.084 2.673,1.718 5.702,2.601 9.063,2.601 C -3.956,54.404 0,51.581 0,45.936 L 0,0 Z" /></g><g
           transform="translate(665.0459,305.4189)"
           id="g48"><path
             id="path50"
             style="fill:#373535;fill-opacity:1;fill-rule:nonzero;stroke:none"
             d="m 0,0 0,26.714 c 0,3.195 1.04,5.496 3.119,6.89 2.081,1.402 5.182,2.107 9.268,2.107 4.075,0 7.754,-0.76 11.002,-2.255 l 0,-40.085 c -2.997,-1.746 -6.675,-2.619 -11.002,-2.619 -4.346,0 -7.493,0.733 -9.453,2.182 C 0.975,-5.599 0,-3.25 0,0 m 27.085,-15.646 1.811,-3.825 11.514,0 0,99.159 -17.021,-6.927 0,-27.8 c -4.326,1.531 -8.494,2.303 -12.516,2.303 -9.378,0 -16.37,-1.896 -20.985,-5.675 -4.605,-3.797 -6.918,-8.884 -6.918,-15.246 l 0,-26.101 c 0,-6.742 2.228,-11.924 6.684,-15.6 4.422,-3.686 11.117,-5.517 20.039,-5.517 6.473,0 12.266,1.757 17.392,5.229" /></g><g
           transform="translate(424.5078,237.3115)"
           id="g52"><path
             id="path54"
             style="fill:#c9caca;fill-opacity:1;fill-rule:nonzero;stroke:none"
             d="m 0,0 c -0.558,-3.361 -1.959,-5.96 -4.215,-7.78 -2.127,-1.757 -4.764,-2.639 -7.922,-2.639 -3.509,0 -6.48,1.208 -8.885,3.614 -1.477,1.485 -2.433,3.379 -2.87,5.691 -0.251,1.365 -0.371,3.844 -0.371,7.456 0,3.612 0.12,6.092 0.371,7.456 0.437,2.312 1.393,4.206 2.87,5.692 2.405,2.406 5.376,3.613 8.885,3.613 3.186,0 5.861,-0.902 8.042,-2.685 2.173,-1.791 3.537,-4.373 4.095,-7.734 l -6.528,0 c -0.78,3.121 -2.628,4.68 -5.552,4.68 -1.95,0 -3.445,-0.734 -4.495,-2.181 -0.834,-1.171 -1.252,-4.123 -1.252,-8.841 0,-2.563 0.037,-4.169 0.102,-4.809 0.203,-2.07 0.714,-3.575 1.522,-4.505 1.013,-1.132 2.386,-1.708 4.123,-1.708 2.924,0 4.772,1.561 5.552,4.68 L 0,0 Z" /></g><g
           transform="translate(462.6514,243.6543)"
           id="g56"><path
             id="path58"
             style="fill:#c9caca;fill-opacity:1;fill-rule:nonzero;stroke:none"
             d="m 0,0 c 0,-3.584 -0.139,-6.063 -0.418,-7.457 -0.409,-2.283 -1.355,-4.179 -2.869,-5.692 -2.405,-2.404 -5.377,-3.612 -8.886,-3.612 -3.556,0 -6.538,1.208 -8.941,3.612 -1.476,1.476 -2.434,3.38 -2.869,5.692 -0.25,1.356 -0.372,3.845 -0.372,7.457 0,3.611 0.122,6.091 0.372,7.456 0.435,2.312 1.393,4.206 2.869,5.692 2.403,2.404 5.385,3.612 8.941,3.612 3.509,0 6.481,-1.208 8.886,-3.612 1.514,-1.514 2.46,-3.409 2.869,-5.692 C -0.139,6.062 0,3.583 0,0 m -6.435,0 c 0,2.533 -0.037,4.132 -0.093,4.809 -0.185,2.044 -0.695,3.529 -1.531,4.449 -1.049,1.169 -2.424,1.763 -4.114,1.763 -1.735,0 -3.12,-0.594 -4.169,-1.763 -0.807,-0.92 -1.3,-2.405 -1.485,-4.449 -0.057,-0.558 -0.094,-2.154 -0.094,-4.809 0,-2.656 0.037,-4.263 0.094,-4.82 0.185,-2.034 0.678,-3.519 1.485,-4.439 1.049,-1.178 2.434,-1.763 4.169,-1.763 1.913,0 3.408,0.742 4.485,2.229 0.835,1.141 1.253,4.066 1.253,8.793" /></g><g
           transform="translate(501.3799,260.1367)"
           id="g60"><path
             id="path62"
             style="fill:#c9caca;fill-opacity:1;fill-rule:nonzero;stroke:none"
             d="M 0,0 -8.533,-17.827 -17.104,0 l -6.324,0 0,-32.962 6.437,0 0,19.21 6.34,-12.498 4.355,0 6.296,12.498 0,-19.21 6.436,0 L 6.436,0 0,0 Z" /></g><g
           transform="translate(547.5605,260.1367)"
           id="g64"><path
             id="path66"
             style="fill:#c9caca;fill-opacity:1;fill-rule:nonzero;stroke:none"
             d="M 0,0 -8.534,-17.827 -17.113,0 l -6.323,0 0,-32.962 6.444,0 0,19.21 6.333,-12.498 4.352,0 6.307,12.498 0,-19.21 6.435,0 L 6.435,0 0,0 Z" /></g><g
           transform="translate(570.3076,260.1367)"
           id="g68"><path
             id="path70"
             style="fill:#c9caca;fill-opacity:1;fill-rule:nonzero;stroke:none"
             d="m 0,0 0,-32.962 21.709,0 0,5.747 -15.274,0 0,7.994 13.009,0 0,5.739 -13.009,0 0,7.746 15.274,0 0,5.736 L 0,0 Z" /></g><g
           transform="translate(632.0781,227.1768)"
           id="g72"><path
             id="path74"
             style="fill:#c9caca;fill-opacity:1;fill-rule:nonzero;stroke:none"
             d="m 0,0 -7.456,0 -6.435,13.148 -4.632,0 0,-13.148 -6.436,0 0,32.964 12.916,0 c 3.268,0 5.896,-0.993 7.874,-2.972 1.875,-1.876 2.822,-4.254 2.822,-7.121 0,-2.192 -0.603,-4.077 -1.809,-5.655 -1.078,-1.385 -2.48,-2.398 -4.217,-3.009 L 0,0 Z m -7.78,22.889 c 0,1.291 -0.438,2.331 -1.302,3.129 -0.862,0.798 -1.985,1.199 -3.379,1.199 l -6.062,0 0,-8.656 6.062,0 c 1.394,0 2.517,0.4 3.379,1.199 0.864,0.799 1.302,1.838 1.302,3.129" /></g><g
           transform="translate(669.3408,237.3115)"
           id="g76"><path
             id="path78"
             style="fill:#c9caca;fill-opacity:1;fill-rule:nonzero;stroke:none"
             d="m 0,0 c -0.557,-3.361 -1.959,-5.96 -4.217,-7.78 -2.125,-1.757 -4.762,-2.639 -7.92,-2.639 -3.509,0 -6.48,1.208 -8.885,3.614 -1.477,1.485 -2.432,3.379 -2.87,5.691 -0.242,1.365 -0.362,3.844 -0.362,7.456 0,3.612 0.12,6.092 0.362,7.456 0.438,2.312 1.393,4.206 2.87,5.692 2.405,2.406 5.376,3.613 8.885,3.613 3.186,0 5.861,-0.902 8.042,-2.685 2.173,-1.791 3.538,-4.373 4.095,-7.734 l -6.528,0 c -0.771,3.121 -2.628,4.68 -5.552,4.68 -1.95,0 -3.445,-0.734 -4.495,-2.181 -0.834,-1.171 -1.243,-4.123 -1.243,-8.841 0,-2.563 0.028,-4.169 0.091,-4.809 0.215,-2.07 0.725,-3.575 1.524,-4.505 1.021,-1.132 2.386,-1.708 4.123,-1.708 2.924,0 4.781,1.561 5.552,4.68 L 0,0 Z" /></g><g
           transform="translate(683.7354,260.1367)"
           id="g80"><path
             id="path82"
             style="fill:#c9caca;fill-opacity:1;fill-rule:nonzero;stroke:none"
             d="m 0,0 0,-32.962 21.72,0 0,5.747 -15.284,0 0,7.994 13.009,0 0,5.739 -13.009,0 0,7.746 15.284,0 L 21.72,0 0,0 Z" /></g><g
           transform="translate(718.9355,385.0479)"
           id="g84"><path
             id="path86"
             style="fill:#373535;fill-opacity:1;fill-rule:nonzero;stroke:none"
             d="m 0,0 0,-1.049 1.644,0 0,-4.568 1.207,0 0,4.568 1.626,0 L 4.477,0 0,0 Z" /></g><g
           transform="translate(728.5879,385.0479)"
           id="g88"><path
             id="path90"
             style="fill:#373535;fill-opacity:1;fill-rule:nonzero;stroke:none"
             d="M 0,0 -1.365,-3.388 -2.722,0 l -1.68,0 0,-5.617 1.199,0 0,3.928 1.578,-3.928 0.521,0 1.586,3.928 0,-3.928 1.208,0 L 1.69,0 0,0 Z" /></g></g></g></g></svg>