<svg xmlns="http://www.w3.org/2000/svg" viewBox="0 0 64.02 15.73"><defs><style>.cls-1{fill:#fff;}</style></defs><title>Asset 1</title><g id="Layer_2" data-name="Layer 2"><g id="BG"><path class="cls-1" d="M0,15.71c11.75-11,14.77-5.89,14.77-5.89L8.88,0Z"/><path class="cls-1" d="M21.41,7.57a2.53,2.53,0,0,1,.94-.5,4,4,0,0,0,1.05-.51V8.19a1.49,1.49,0,0,1-.59.5,1.82,1.82,0,0,1-.72.18c-.57,0-.88-.26-.88-.78a.65.65,0,0,1,.19-.51m2.12,1.58a1.22,1.22,0,0,0,.57.59,2.47,2.47,0,0,0,1.07.19h.35l.06-1.2a.54.54,0,0,1-.43-.14A1,1,0,0,1,25.05,8V5.43a2.11,2.11,0,0,0-.62-1.63,2.91,2.91,0,0,0-2-.57,3.16,3.16,0,0,0-2,.54,1.86,1.86,0,0,0-.67,1.52v.19h1.58V5.22a.89.89,0,0,1,.22-.64,1.15,1.15,0,0,1,.81-.22c.7,0,1.05.24,1.05.75a.66.66,0,0,1-.34.57,5.6,5.6,0,0,1-1.18.46A5.06,5.06,0,0,0,20,7a1.63,1.63,0,0,0-.5,1.23A1.57,1.57,0,0,0,20,9.5a1.92,1.92,0,0,0,1.33.5,3.33,3.33,0,0,0,1.33-.24,2.18,2.18,0,0,0,.85-.61"/><path class="cls-1" d="M30.85,9.45a1.77,1.77,0,0,0,.62-1.37,2.13,2.13,0,0,0-.34-1.28A2.29,2.29,0,0,0,30,6.08L28.6,5.65a.56.56,0,0,1-.46-.54.69.69,0,0,1,.22-.57,1.17,1.17,0,0,1,.7-.16c.32,0,.46,0,1.87.1l0-1.05a8.48,8.48,0,0,0-1.84-.19c-1.69,0-2.55.61-2.57,1.82v0a1.81,1.81,0,0,0,.32,1.12,1.85,1.85,0,0,0,1.07.69l1.47.45A.68.68,0,0,1,30,8a.6.6,0,0,1,0,.16c-.06.46-.37.69-.89.69a5.67,5.67,0,0,1-2.2-.4l-.34,1.12a6,6,0,0,0,2.6.43,2.63,2.63,0,0,0,1.72-.56"/><path class="cls-1" d="M35.77,9.93l.06-1.23h-.19a2.08,2.08,0,0,1-1.13-.21,1,1,0,0,1-.29-.81V4.41H35.8V3.35H34.22V.59l-1.68.69V7.81a1.88,1.88,0,0,0,.62,1.69,4,4,0,0,0,2.19.45l.42,0Z"/><path class="cls-1" d="M41.09,9.85a1.84,1.84,0,0,0,1.53-2V5.33a1.81,1.81,0,0,0-.77-1.55,4.38,4.38,0,0,0-4.28,0,1.81,1.81,0,0,0-.77,1.55V7.89c0,1.41,1,2.11,2.91,2.11a5.76,5.76,0,0,0,1.37-.14M38.8,8.65A.77.77,0,0,1,38.5,8V5.27c0-.59.4-.89,1.21-.89a1.51,1.51,0,0,1,.89.21.77.77,0,0,1,.3.69V8c0,.59-.4.89-1.21.89a1.72,1.72,0,0,1-.89-.21"/><path class="cls-1" d="M48.13,9.87h1.6V3.37H48V7.74a.81.81,0,0,1-.4.75,1.58,1.58,0,0,1-.89.26,1.53,1.53,0,0,1-.83-.22.8.8,0,0,1-.34-.7V3.35H43.88V8.1a1.77,1.77,0,0,0,.57,1.36A2.26,2.26,0,0,0,46,10a3.48,3.48,0,0,0,1.26-.22,1.29,1.29,0,0,0,.77-.62Z"/><path class="cls-1" d="M55.23,9.87h1.69V5.21a2,2,0,0,0-.53-1.42,2.14,2.14,0,0,0-1.66-.57,3,3,0,0,0-2,.72V3.35H51v6.5h1.69V5.41a.78.78,0,0,1,.4-.7A1.62,1.62,0,0,1,54,4.46c.78,0,1.18.29,1.18.85l0,4.57Z"/><path class="cls-1" d="M60,7.92V5.27a.77.77,0,0,1,.3-.69,1.62,1.62,0,0,1,.93-.21,2.77,2.77,0,0,1,1.1.22v4a2.16,2.16,0,0,1-1.1.26,1.6,1.6,0,0,1-.94-.22.81.81,0,0,1-.29-.7m2.68,1.56.18.38H64V0L62.32.69V3.45a3.55,3.55,0,0,0-1.25-.22A3.34,3.34,0,0,0,59,3.78,1.85,1.85,0,0,0,58.3,5.3V7.9A1.89,1.89,0,0,0,59,9.45a3.54,3.54,0,0,0,3.72,0"/><path class="cls-1" d="M36.09,14.71a1.14,1.14,0,0,1-.42.77,1.18,1.18,0,0,1-.78.26,1.24,1.24,0,0,1-.88-.35,1.1,1.1,0,0,1-.29-.56,4.12,4.12,0,0,1,0-.73,6.66,6.66,0,0,1,0-.73,1.1,1.1,0,0,1,.29-.56,1.18,1.18,0,0,1,.88-.35,1.24,1.24,0,0,1,.8.27,1.21,1.21,0,0,1,.42.77h-.65a.57.57,0,0,0-1-.24,1.89,1.89,0,0,0-.13.88,3.13,3.13,0,0,0,0,.48.77.77,0,0,0,.16.45.53.53,0,0,0,.42.18.55.55,0,0,0,.56-.46h.62Z"/><path class="cls-1" d="M39.87,14.07a3.7,3.7,0,0,1,0,.73.9.9,0,0,1-.29.56,1.18,1.18,0,0,1-.88.35,1.22,1.22,0,0,1-.89-.35,1.1,1.1,0,0,1-.29-.56,4.12,4.12,0,0,1,0-.73,6.66,6.66,0,0,1,0-.73,1.1,1.1,0,0,1,.29-.56,1.22,1.22,0,0,1,.89-.35,1.24,1.24,0,0,1,.88.35,1.1,1.1,0,0,1,.29.56,3.7,3.7,0,0,1,0,.73m-.64,0a3.13,3.13,0,0,0,0-.48.78.78,0,0,0-.14-.45.58.58,0,0,0-.83,0,.78.78,0,0,0-.14.45s0,.21,0,.48a2.88,2.88,0,0,0,0,.48.78.78,0,0,0,.14.45.55.55,0,0,0,.42.18.54.54,0,0,0,.45-.22,1.89,1.89,0,0,0,.13-.88"/><polygon class="cls-1" points="44.36 15.71 43.72 15.71 43.72 13.8 43.1 15.04 42.67 15.04 42.04 13.8 42.04 15.71 41.39 15.71 41.39 12.42 42.03 12.42 42.87 14.2 43.72 12.42 44.36 12.42 44.36 15.71"/><polygon class="cls-1" points="48.96 15.71 48.32 15.71 48.32 13.8 47.7 15.04 47.27 15.04 46.63 13.8 46.63 15.71 45.99 15.71 45.99 12.42 46.61 12.42 47.47 14.2 48.32 12.42 48.96 12.42 48.96 15.71"/><polygon class="cls-1" points="52.74 15.71 50.59 15.71 50.59 12.42 52.74 12.42 52.74 13 51.23 13 51.23 13.76 52.52 13.76 52.52 14.34 51.23 14.34 51.23 15.14 52.74 15.14 52.74 15.71"/><path class="cls-1" d="M56.72,15.71H56l-.64-1.31h-.46v1.31h-.64V12.42h1.28a1.07,1.07,0,0,1,.78.29,1,1,0,0,1,.29.7.93.93,0,0,1-.18.56.88.88,0,0,1-.42.3ZM56,13.43a.38.38,0,0,0-.13-.3.45.45,0,0,0-.34-.11h-.61v.86h.61a.45.45,0,0,0,.34-.11.48.48,0,0,0,.13-.34"/><path class="cls-1" d="M60.44,14.71a1.14,1.14,0,0,1-.42.77,1.18,1.18,0,0,1-.78.26,1.24,1.24,0,0,1-.88-.35,1.1,1.1,0,0,1-.29-.56,4.12,4.12,0,0,1,0-.73,6.66,6.66,0,0,1,0-.73,1.1,1.1,0,0,1,.29-.56,1.18,1.18,0,0,1,.88-.35,1.24,1.24,0,0,1,.8.27,1.21,1.21,0,0,1,.42.77H59.8a.57.57,0,0,0-1-.24,1.89,1.89,0,0,0-.13.88,3.13,3.13,0,0,0,0,.48.77.77,0,0,0,.16.45.53.53,0,0,0,.42.18.55.55,0,0,0,.56-.46h.62v0Z"/><polygon class="cls-1" points="64.02 15.71 61.86 15.71 61.86 12.42 64.02 12.42 64.02 13 62.5 13 62.5 13.76 63.79 13.76 63.79 14.34 62.5 14.34 62.5 15.14 64.02 15.14 64.02 15.71"/></g></g></svg>