<svg width="432" height="431" xmlns="http://www.w3.org/2000/svg"><g fill="none" fill-rule="evenodd"><path d="M216.077328.22934413C97.1671976.22934413.77135465 96.6253417.77135465 215.536005c0 118.909864 96.39584295 215.305662 215.30597335 215.305662 118.910664 0 215.306661-96.395798 215.306661-215.305662 0-118.9106633-96.395997-215.30666088-215.306661-215.30666088z" fill="#3A47E4"/><path d="M216.077328.22934413C97.1671976.22934413.77135465 96.6253417.77135465 215.536005c0 118.909864 96.39584295 215.305662 215.30597335 215.305662 118.910664 0 215.306661-96.395798 215.306661-215.305662 0-118.9106633-96.395997-215.30666088-215.306661-215.30666088zM136.09333 181.066673l-1.554667 5.812 14.022667.061333-16.5796 66.409332c-2.891067 11.093333-5.4484 21.919999-8.521866 32.830666-2.464534 8.750666-8.273867 25.685066-18.662533 22.233999.36-3.577066 2.148-2.344267 2.9188-5.873866 1.6016-7.3308-4.774934-13.8068-13.6265334-11.2828-10.0114664 2.857333-11.4770663 16.484266-1.7343999 20.962399 8.3906663 3.8568 21.5541323 1.391734 29.3202663-1.9812 29.683199-12.889199 38.521865-63.078531 46.491198-94.834531 2.284-9.098666 5.305334-19.455999 6.998667-28.458666 28.286666.002667 29.585333-1.290666 29.913333 28.918666.206666 19.097333-.748 37.965333-1.473334 56.918666l4.056-.026667 11.266667-15.758666c5.831999-7.952 31.113332-45.745332 33.471999-47.602666l6.314666 63.377332c6.564.032 6.130667-2.257333 11.738667-6.758667 1.884-1.511999 2.915999-2.910666 4.707999-4.462666l14.056-13.526666c3.1-3.154667 6.153333-5.934667 8.994667-9.393334 7.650666-9.310666 8.407999-8.597333 15.719999-21.037332 3.773333-6.416 9.641333-18.829333 9.438667-28.165333-.118667-5.445333-2.582667-10.725333-5.477334-13.145333-7.281333-6.081333-21.693332-1.284-20.161332 12.024 1.170666 10.165333 18.622666 12.486666 1.701333 38.341332-2.428 3.710667-14.724 18.229333-17.424 19.472l-7.393333-70.657332c-1.173333-3.348-4.288-2.193333-5.817333-.125333l-38.194666 54.166665c-2.362666-22.469333 3.766667-21.723999-5.282666-55.566665l-48.463999 6.781333c2.664-15.388 17.041333-56.483999 33.249332-51.178665 1.398667 5.209333-8.225333 12.709333 1.312 18.811999 7.508 4.805333 14.876-1.728 15.437333-8.857333 1.444-18.364-22.902666-17.258666-36.279999-11.953333-13.725333 5.442666-19.955999 15.353333-27.185332 26.823999-14.302667 22.692-8.370667 24.069333-27.297333 26.701333z" fill="#FFF"/></g></svg>
