<svg id="_1" data-name="??? 1" xmlns="http://www.w3.org/2000/svg" viewBox="0 0 327 288"><defs><style>.cls-1{fill:#fff;}</style></defs><title>RK_neon_stickerМонтажна область 1</title><g id="Group-2"><path id="fw" class="cls-1" d="M76.71,209.71H67.48v31.72H59.42V209.71H53.2V206l6.22-2.46V201q0-6.71,3.14-9.93t9.61-3.23a25.79,25.79,0,0,1,8.34,1.4l-2.12,6.08a18.82,18.82,0,0,0-5.68-.95,4.61,4.61,0,0,0-4,1.69,8.53,8.53,0,0,0-1.25,5.07v2.47h9.23Zm40.43,31.72-4.89-17.64q-.89-2.81-3.21-13h-.31q-2,9.22-3.14,13.09l-5,17.57H91.67l-10.59-37.8h8.2l4.82,18.62q1.65,6.92,2.33,11.83h.2q.34-2.49,1-5.73c.47-2.15.87-3.76,1.22-4.83l5.74-19.89h8.82L119,223.52c.34,1.12.77,2.82,1.28,5.13a41.6,41.6,0,0,1,.91,5.36h.27a105.43,105.43,0,0,1,2.39-11.76l4.89-18.62h8.07l-10.67,37.8Z"/><path id="days" class="cls-1" d="M154.49,243.11a13.17,13.17,0,0,1-11-5.12q-4-5.13-4-14.39t4-14.48a13.31,13.31,0,0,1,11.13-5.18q7.45,0,11.35,5.51h.41a48.19,48.19,0,0,1-.59-6.43V189.25h8.07v53.18h-6.29l-1.4-5h-.38Q161.95,243.11,154.49,243.11Zm2.15-6.49c3.31,0,5.71-.93,7.22-2.79s2.27-4.87,2.32-9v-1.13q0-7.14-2.32-10.15c-1.55-2-4-3-7.28-3a7.38,7.38,0,0,0-6.53,3.44q-2.3,3.44-2.29,9.79t2.22,9.59A7.49,7.49,0,0,0,156.64,236.62Zm50,5.81-1.6-5.27h-.28a15.32,15.32,0,0,1-5.5,4.7,17.23,17.23,0,0,1-7.11,1.25q-5.56,0-8.7-3t-3.12-8.51q0-5.84,4.34-8.81t13.22-3.25l6.53-.21v-2q0-3.63-1.69-5.42t-5.25-1.8a18.17,18.17,0,0,0-5.57.86,41.59,41.59,0,0,0-5.12,2l-2.6-5.75a28,28,0,0,1,6.73-2.44,30.92,30.92,0,0,1,6.91-.84q7.2,0,10.88,3.15c2.45,2.09,3.68,5.39,3.68,9.87v25.47Zm-12-5.47a10,10,0,0,0,7-2.44,8.89,8.89,0,0,0,2.64-6.86v-3.28l-4.85.21c-3.78.13-6.53.77-8.25,1.89a5.77,5.77,0,0,0-2.58,5.18,5.08,5.08,0,0,0,1.5,3.92A6.47,6.47,0,0,0,194.71,237Zm20.84-32.33h8.75L232,226.06a40.88,40.88,0,0,1,2.33,8.61h.27a34.77,34.77,0,0,1,1.13-4.56q.83-2.69,8.68-25.48h8.68l-16.17,42.82q-4.41,11.79-14.69,11.8a23,23,0,0,1-5.2-.59v-6.35a19.09,19.09,0,0,0,4.14.41q5.81,0,8.17-6.74l1.4-3.55Zm66.34,27a9.92,9.92,0,0,1-4,8.5q-4,3-11.55,3t-12.13-2.29v-6.94a29.8,29.8,0,0,0,12.4,3.08q7.43,0,7.42-4.48a3.54,3.54,0,0,0-.82-2.39,9.69,9.69,0,0,0-2.7-2,45.92,45.92,0,0,0-5.23-2.33q-6.53-2.52-8.84-5.06a9.37,9.37,0,0,1-2.3-6.56,8.6,8.6,0,0,1,3.91-7.53q3.92-2.69,10.65-2.69a30.14,30.14,0,0,1,12.61,2.7l-2.6,6.05a28.19,28.19,0,0,0-10.29-2.53q-6.35,0-6.35,3.63a3.63,3.63,0,0,0,1.66,3,36.45,36.45,0,0,0,7.22,3.39,33.43,33.43,0,0,1,6.81,3.31,10,10,0,0,1,3.14,3.47A10.09,10.09,0,0,1,281.89,231.66Z"/></g><path class="cls-1" d="M287.32,90.41a7.56,7.56,0,1,1-7.56-7.56A7.55,7.55,0,0,1,287.32,90.41Z"/><polygon class="cls-1" points="58.7 109.56 39.55 90.41 93.54 36.41 88.2 31.07 28.86 90.41 53.35 114.9 58.7 109.56"/><rect class="cls-1" x="76.14" y="120.63" width="7.56" height="30.98" transform="translate(-72.85 96.39) rotate(-45)"/><polygon class="cls-1" points="223.09 152.42 185.32 114.64 147.54 152.42 90.87 95.75 36.88 149.75 31.53 144.4 90.87 85.07 147.54 141.73 185.32 103.96 223.09 141.73 277.09 87.74 282.43 93.08 223.09 152.42"/><path class="cls-1" d="M97,33.74a6.14,6.14,0,1,1-6.14-6.14A6.14,6.14,0,0,1,97,33.74Z"/><path class="cls-1" d="M40.34,90.41a6.14,6.14,0,1,1-6.14-6.14A6.14,6.14,0,0,1,40.34,90.41Z"/><path class="cls-1" d="M40.34,147.08a6.14,6.14,0,1,1-6.14-6.14A6.14,6.14,0,0,1,40.34,147.08Z"/><path class="cls-1" d="M98.43,90.41a7.56,7.56,0,1,1-7.56-7.55A7.56,7.56,0,0,1,98.43,90.41Z"/><path class="cls-1" d="M153.68,147.08a6.14,6.14,0,1,1-6.14-6.14A6.14,6.14,0,0,1,153.68,147.08Z"/><path class="cls-1" d="M191.46,109.3a6.14,6.14,0,1,1-6.14-6.14A6.14,6.14,0,0,1,191.46,109.3Z"/><path class="cls-1" d="M229.24,147.08a6.14,6.14,0,1,1-6.15-6.14A6.15,6.15,0,0,1,229.24,147.08Z"/><path class="cls-1" d="M97,147.08a6.14,6.14,0,1,1-6.14-6.14A6.14,6.14,0,0,1,97,147.08Z"/></svg>