<svg xmlns="http://www.w3.org/2000/svg" viewBox="0 0 73.76 17.36"><defs><style>.cls-1{fill:#fff;fill-rule:evenodd;}</style></defs><title>Asset 4</title><g id="Layer_2" data-name="Layer 2"><g id="BG"><path class="cls-1" d="M28.51,6.62a.79.79,0,1,1,1.59,0v.25c.23-.54.61-1,1.08-1a.72.72,0,0,1,.77.77.73.73,0,0,1-.59.74c-.8.19-1.25.8-1.25,1.93v1.48a.79.79,0,1,1-1.59,0V6.62"/><path class="cls-1" d="M31.76,9.88v0c0-1.22.93-1.79,2.26-1.79a4,4,0,0,1,1.37.23V8.21c0-.66-.41-1-1.2-1a3.64,3.64,0,0,0-1.1.16.67.67,0,0,1-.23,0,.65.65,0,0,1-.66-.65.66.66,0,0,1,.43-.62,4.87,4.87,0,0,1,1.79-.29,2.58,2.58,0,0,1,1.89.63,2.44,2.44,0,0,1,.61,1.79v2.55a.76.76,0,0,1-.77.76.71.71,0,0,1-.76-.66h0a2.15,2.15,0,0,1-1.69.71,1.73,1.73,0,0,1-1.92-1.71Zm3.64-.37V9.23a2.46,2.46,0,0,0-1-.21c-.68,0-1.1.27-1.1.77v0c0,.43.36.68.87.68.74,0,1.24-.41,1.24-1Z"/><path class="cls-1" d="M37.75,6.62a.79.79,0,1,1,1.59,0v.06A2,2,0,0,1,41,5.78a1.67,1.67,0,0,1,1.58.89,2.3,2.3,0,0,1,1.84-.89c1.18,0,1.89.71,1.89,2.06v2.92a.79.79,0,1,1-1.59,0V8.36c0-.75-.33-1.14-.93-1.14s-1,.39-1,1.14v2.39a.79.79,0,1,1-1.59,0V8.36c0-.75-.33-1.14-.93-1.14s-1,.39-1,1.14v2.39a.79.79,0,1,1-1.59,0V6.62"/><path class="cls-1" d="M47.15,6.62a.79.79,0,1,1,1.59,0v.06a2,2,0,0,1,1.65-.9A1.67,1.67,0,0,1,52,6.67a2.3,2.3,0,0,1,1.84-.89c1.18,0,1.89.71,1.89,2.06v2.92a.79.79,0,1,1-1.59,0V8.36c0-.75-.33-1.14-.93-1.14s-1,.39-1,1.14v2.39a.79.79,0,1,1-1.59,0V8.36c0-.75-.33-1.14-.93-1.14s-1,.39-1,1.14v2.39a.79.79,0,1,1-1.59,0V6.62"/><path class="cls-1" d="M56.22,9.88v0c0-1.22.93-1.79,2.26-1.79a4,4,0,0,1,1.37.23V8.21c0-.66-.41-1-1.2-1a3.64,3.64,0,0,0-1.1.16.67.67,0,0,1-.23,0,.65.65,0,0,1-.66-.65.66.66,0,0,1,.43-.62,4.87,4.87,0,0,1,1.79-.29,2.58,2.58,0,0,1,1.89.63,2.44,2.44,0,0,1,.61,1.79v2.55a.76.76,0,0,1-.77.76.71.71,0,0,1-.76-.66h0a2.15,2.15,0,0,1-1.69.71,1.73,1.73,0,0,1-1.92-1.71Zm3.64-.37V9.23a2.46,2.46,0,0,0-1-.21c-.68,0-1.1.27-1.1.77v0c0,.43.35.68.87.68.74,0,1.24-.41,1.24-1Z"/><path class="cls-1" d="M62.21,6.62a.79.79,0,1,1,1.59,0v.25c.23-.54.61-1,1.08-1a.72.72,0,0,1,.77.77.73.73,0,0,1-.59.74c-.8.19-1.25.8-1.25,1.93v1.48a.79.79,0,1,1-1.59,0V6.62"/><path class="cls-1" d="M66.12,4.59a.79.79,0,1,1,1.59,0v6.17a.79.79,0,1,1-1.59,0V4.59"/><path class="cls-1" d="M69,13a.69.69,0,0,1-.5-.66.63.63,0,0,1,.63-.65.75.75,0,0,1,.26,0,1,1,0,0,0,.33.06.52.52,0,0,0,.56-.33l.05-.13L68.4,7a1.16,1.16,0,0,1-.08-.37.75.75,0,0,1,.78-.76.77.77,0,0,1,.76.6l1.21,3.26,1.17-3.25A.81.81,0,0,1,73,5.82a.74.74,0,0,1,.75.73,1.2,1.2,0,0,1-.07.38l-2,4.69c-.47,1.14-.94,1.57-1.89,1.57A2.38,2.38,0,0,1,69,13"/><path class="cls-1" d="M22.45,12.79a.65.65,0,1,1,.46-1.21,3.61,3.61,0,0,0,1.55.33c1.09,0,1.6-.52,1.6-1.53v-.27a2.19,2.19,0,0,1-1.83.91,2.46,2.46,0,0,1-2.49-2.61v0a2.46,2.46,0,0,1,2.49-2.61A2.26,2.26,0,0,1,26,6.62h0a.79.79,0,0,1,1.59,0v3.61a3,3,0,0,1-.71,2.21,3.28,3.28,0,0,1-2.41.75,5.35,5.35,0,0,1-2-.39ZM26,8.42v0a1.36,1.36,0,0,0-2.73,0v0a1.28,1.28,0,0,0,1.36,1.3A1.29,1.29,0,0,0,26,8.42Z"/><path class="cls-1" d="M8.67,0a8.68,8.68,0,1,0,8.67,8.68A8.68,8.68,0,0,0,8.67,0Zm5.08,13.21a.59.59,0,0,1-.7.58.61.61,0,0,1-.48-.61v-.56l.11-.62A5.09,5.09,0,0,1,3.77,8.38a5.09,5.09,0,0,1,9.38-2.45.58.58,0,0,1-1,.59,4.16,4.16,0,0,0-3.3-1.79A4,4,0,0,0,5.23,10.2a3.72,3.72,0,0,0,2.89,2.32A3.85,3.85,0,0,0,12,11L11.5,11h-.91a.61.61,0,0,1-.61-.48.59.59,0,0,1,.58-.7h3.19Z"/></g></g></svg>