<svg xmlns="http://www.w3.org/2000/svg" viewBox="0 0 48.18 52.15"><defs><style>.cls-1,.cls-2{fill:#fff;}.cls-1{opacity:0.3;}</style></defs><title>Asset 5</title><g id="Layer_2" data-name="Layer 2"><g id="BG"><path class="cls-1" d="M48.18,27.5a2,2,0,0,0-.56-1.4L22,1A3.15,3.15,0,0,0,21.6.61l0,0a3.14,3.14,0,0,0-.45-.26L21,.27a3.13,3.13,0,0,0-.45-.15l-.16,0A3.12,3.12,0,0,0,19.76,0a3,3,0,0,0-.55.06l-.27.07L18.69.2l-.27.11L18.08.5,18,.54l-.1.06L2,11.34s-.06,0-.07.07h0a4.46,4.46,0,0,0-1.56,2A4.39,4.39,0,0,0,0,14.88C0,15,0,15,0,15.1a4.38,4.38,0,0,0,0,.48c0,.12,0,.25.05.37s.06.25.1.37a4.5,4.5,0,0,0,.16.46L.46,17a4.49,4.49,0,0,0,.32.55l.08.11a4.4,4.4,0,0,0,1.26,1.19,3.54,3.54,0,0,0,.8.36l11.29,4.68V17l-2.83-2.23,8.46-7.63L43.05,27.07,11.46,44.37A3.94,3.94,0,0,0,9.58,46,4,4,0,0,0,11,51.59a4.12,4.12,0,0,0,4.29-.08c.08-.08.2-.12.28-.2l31.26-22a7.48,7.48,0,0,0,.61-.49A1.9,1.9,0,0,0,48.18,27.5Z"/><path class="cls-2" d="M20.28,22.45h-.6v.8h.6c.32,0,.48-.16.48-.4S20.56,22.45,20.28,22.45Z"/><path class="cls-2" d="M13.87,15V35.43H34.31V15ZM21,17.56H24v.8H23v2.53H22V18.36H21Zm-.2,0v.76H19.08v.52h1.6v.72h-1.6v.52h1.8v.8H18.19l0-3.33ZM18.6,24c0,.56-.48.92-1.24.92H15.63V21.64h1.72a1.48,1.48,0,0,1,.92.28.79.79,0,0,1,.2.56.78.78,0,0,1-.52.76A.78.78,0,0,1,18.6,24ZM16.15,19.8a.68.68,0,0,0,.52.32q.36,0,.36-.48V17.52H18v2.12a1.12,1.12,0,0,1-1.24,1.24,1.21,1.21,0,0,1-1.16-.52Zm7.13,13.07H15.63V31.58h7.66ZM24,25l-.24-.6H22.52l-.24.6h-1l0,0h-.58l-.68-1h-.4v1h-.92V21.64h1.56A1.41,1.41,0,0,1,21.4,22a1,1,0,0,1,.28.76,1.11,1.11,0,0,1-.68,1l.52.75,1.25-2.91h.88L25,25Zm2,0h-.92V21.64h.92Zm3.37,0h-.8l-1.4-1.8V25h-.92V21.64h.84l1.36,1.76V21.64h.92Zm1.64,0a2.12,2.12,0,0,1-1.56-.52l.52-.6a1.58,1.58,0,0,0,1.08.4c.24,0,.4-.08.4-.24s-.12-.2-.56-.32c-.72-.16-1.24-.36-1.24-1A1.14,1.14,0,0,1,31,21.6a2.14,2.14,0,0,1,1.36.44l-.48.64a1.82,1.82,0,0,0-.92-.32c-.24,0-.32.08-.32.2s.12.2.56.32c.76.16,1.24.4,1.24,1S31.94,25,31.1,25Z"/><path class="cls-2" d="M17.23,23.65h-.72v.6h.72c.28,0,.44-.12.44-.32S17.51,23.65,17.23,23.65Z"/><path class="cls-2" d="M17.55,22.69c0-.2-.16-.28-.4-.28h-.6V23h.56C17.39,23,17.55,22.89,17.55,22.69Z"/><polygon class="cls-2" points="22.84 23.65 23.57 23.65 23.2 22.73 22.84 23.65"/></g></g></svg>