<svg id="Layer_1" data-name="Layer 1" xmlns="http://www.w3.org/2000/svg" xmlns:xlink="http://www.w3.org/1999/xlink" viewBox="0 0 120.236 130.189">
  <defs>
    <linearGradient id="linear-gradient" x1="31.915" y1="9.616" x2="110.315" y2="56.936" gradientTransform="matrix(1, 0, 0, -1, 0, 130.19)" gradientUnits="userSpaceOnUse">
      <stop offset="0" stop-color="#fcee39"/>
      <stop offset="1" stop-color="#f37b3d"/>
    </linearGradient>
    <linearGradient id="linear-gradient-2" x1="48.417" y1="123.269" x2="119.967" y2="60.619" gradientTransform="matrix(1, 0, 0, -1, 0, 130.19)" gradientUnits="userSpaceOnUse">
      <stop offset="0" stop-color="#ef5a6b"/>
      <stop offset="0.57" stop-color="#f26f4e"/>
      <stop offset="1" stop-color="#f37b3d"/>
    </linearGradient>
    <linearGradient id="linear-gradient-3" x1="53.001" y1="66.541" x2="10.591" y2="93.021" gradientTransform="matrix(1, 0, 0, -1, 0, 130.19)" gradientUnits="userSpaceOnUse">
      <stop offset="0" stop-color="#7c59a4"/>
      <stop offset="0.38" stop-color="#af4c92"/>
      <stop offset="0.75" stop-color="#dc4183"/>
      <stop offset="0.94" stop-color="#ed3d7d"/>
    </linearGradient>
    <linearGradient id="linear-gradient-4" x1="52.222" y1="126.508" x2="10.822" y2="92.308" gradientTransform="matrix(1, 0, 0, -1, 0, 130.19)" gradientUnits="userSpaceOnUse">
      <stop offset="0" stop-color="#ef5a6b"/>
      <stop offset="0.36" stop-color="#ee4e72"/>
      <stop offset="1" stop-color="#ed3d7d"/>
    </linearGradient>
  </defs>
  <title>logo_JetBrains_4</title>
  <g>
    <path id="_Path_" data-name=" Path " d="M118.717,71.81a4.64,4.64,0,0,0-6.19-6.9h0l-83.8,45.86a10.13,10.13,0,1,0,9.49,17.83h0q0.375-.24.72-0.51l78-54.84c0.47-.32,1.54-1.15,1.82-1.41h0Z" fill="url(#linear-gradient)"/>
    <path id="_Path_2" data-name=" Path 2" d="M118.817,65.11h0L55.067,2.52a7.73,7.73,0,0,0-13.43,5.22h0a7.71,7.71,0,0,0,2.14,5.37h0a7.82,7.82,0,0,0,1.18,1l67.37,57.7h0a4.664,4.664,0,0,0,6.49-6.7h0Z" fill="url(#linear-gradient-2)"/>
    <path id="_Path_3" data-name=" Path 3" d="M57.127,59.54c-0.09-.07-39.34-31.08-40.15-31.57h0A11.185,11.185,0,0,0,5.4,47.11h0a11.22,11.22,0,0,0,1.91.93c0.4,0.15,45.38,18.81,45.38,18.81h0A4.3,4.3,0,0,0,57.127,59.54Z" fill="url(#linear-gradient-3)"/>
    <path id="_Path_4" data-name=" Path 4" d="M49.377,0a7.68,7.68,0,0,0-4.56,1.5L4.937,28.34l-0.23.16H4.657a11.18,11.18,0,0,0,13.1,18.11h0a11.15,11.15,0,0,0,1.79-1.62l34.58-31.14h0a7.73,7.73,0,0,0,3-6.09h0A7.76,7.76,0,0,0,49.377,0Z" fill="url(#linear-gradient-4)"/>
    <g id="_Group_" data-name=" Group ">
      <rect id="_Path_5" data-name=" Path 5" x="34.647" y="37.41" width="50.96" height="50.96"/>
      <rect id="_Path_6" data-name=" Path 6" x="39.047" y="78.82" width="19.11" height="3.18" fill="#fff"/>
      <g id="_Group_2" data-name=" Group 2">
        <path id="_Compound_Path_" data-name=" Compound Path " d="M38.827,50.83l1.48-1.4a1.68,1.68,0,0,0,1.31.77,1,1,0,0,0,.94-1.16V43.78h2.29v5.27a3.09,3.09,0,0,1-.82,2.34,3.13,3.13,0,0,1-2.28.84A3.39,3.39,0,0,1,38.827,50.83Z" fill="#fff"/>
        <path id="_Compound_Path_2" data-name=" Compound Path 2" d="M45.377,43.78h6.68v1.95h-4.4V47h4v1.82h-4v1.29h4.47v2h-6.74V43.8Z" fill="#fff"/>
        <path id="_Compound_Path_3" data-name=" Compound Path 3" d="M55.067,45.8h-2.48v-2h7.27v2h-2.49v6.31h-2.3V45.8Z" fill="#fff"/>
        <path id="_Compound_Path_4" data-name=" Compound Path 4" d="M39.047,54.03h4.26a3.11,3.11,0,0,1,2.27.74,1.87,1.87,0,0,1,.55,1.34h0a1.92,1.92,0,0,1-1.28,1.85,2,2,0,0,1,1.65,2h0c0,1.42-1.16,2.29-3.14,2.29h-4.28V53.94Zm4.79,2.56a0.806,0.806,0,0,0-1-.71h-1.51v1.46h1.45c0.7,0,1.1-.24,1.1-0.72h0Zm-0.79,2.36h-1.76v1.53h1.78c0.71,0,1.1-.27,1.1-0.76h0a0.906,0.906,0,0,0-1.13-.77h0.01Z" fill="#fff"/>
        <path id="_Compound_Path_5" data-name=" Compound Path 5" d="M46.817,54.03h3.93a3.68,3.68,0,0,1,2.71.89,2.59,2.59,0,0,1,.74,1.93h0a2.63,2.63,0,0,1-1.71,2.56l2,2.9h-2.65l-1.71-2.49h-1v2.52h-2.3V54.03h-0.01Zm3.83,4a1,1,0,0,0,1.23-1h0a1,1,0,0,0-1.25-1h-1.5v2h1.52Z" fill="#fff"/>
        <path id="_Compound_Path_6" data-name=" Compound Path 6" d="M56.877,53.97h2.25l3.54,8.36h-2.54l-0.59-1.49h-3.22l-0.59,1.49h-2.41Zm2,5.08-0.93-2.35-0.94,2.35h1.87Z" fill="#fff"/>
        <path id="_Compound_Path_7" data-name=" Compound Path 7" d="M62.9,54.03h2.3v8.31H62.9V54.03Z" fill="#fff"/>
        <path id="_Compound_Path_8" data-name=" Compound Path 8" d="M65.777,54.03h2.15l3.42,4.39V54.03h2.28v8.31h-2l-3.56-4.56v4.56h-2.28V54.03h-0.01Z" fill="#fff"/>
        <path id="_Compound_Path_9" data-name=" Compound Path 9" d="M73.757,61.11l1.28-1.53a4.3,4.3,0,0,0,2.69,1c0.63,0,1-.21,1-0.57h0c0-.36-0.27-0.53-1.41-0.81-1.77-.4-3.13-0.9-3.13-2.6h0c0-1.54,1.22-2.66,3.22-2.66a5.23,5.23,0,0,1,3.42,1.1l-1.15,1.63a4.08,4.08,0,0,0-2.33-.82c-0.56,0-.83.23-0.83,0.53h0c0,0.38.28,0.55,1.45,0.81,1.9,0.42,3.08,1,3.08,2.59h0c0,1.7-1.34,2.71-3.36,2.71A5.82,5.82,0,0,1,73.757,61.11Z" fill="#fff"/>
      </g>
    </g>
  </g>
</svg>
