<svg id="Layer_1" data-name="Layer 1" xmlns="http://www.w3.org/2000/svg" viewBox="0 0 465.32 264"><defs><style>.cls-1{fill:none;}.cls-2{fill:#fff;}</style></defs><title>kyivjs_whiteArtboard 1</title><polygon class="cls-1" points="21.44 74.78 21.44 74.78 31.38 81.37 21.44 74.78"/><polygon class="cls-1" points="93.97 207.35 106.47 192.09 93.97 207.35 93.97 207.35"/><polygon class="cls-1" points="83.45 220.2 83.45 220.2 73.36 197.3 83.45 220.2"/><polygon class="cls-1" points="41.94 88.37 41.94 88.37 91.67 121.35 41.94 88.37"/><polygon class="cls-1" points="93.97 207.35 93.97 207.35 108.43 226.2 108.43 226.2 93.97 207.35"/><polygon class="cls-1" points="83.45 220.2 74.74 230.85 83.45 220.2 83.45 220.2"/><polygon class="cls-1" points="97.24 158.76 85.89 151.89 97.24 158.76 97.24 158.76"/><polygon class="cls-1" points="29.57 154.41 43.38 168.62 43.38 168.62 29.57 154.41"/><polygon class="cls-1" points="73.55 157.1 44.47 155.07 73.55 157.1 73.55 157.1"/><path class="cls-1" d="M105.38,163.69l-61.15,5.8h0l-.39,0,61.54-5.84Z"/><polygon class="cls-1" points="131.76 161.18 105.38 163.69 131.76 161.18 131.76 161.18"/><path class="cls-1" d="M131.77,161.18l-1.31-.09-33.21-2.33h0Z"/><polygon class="cls-1" points="254.88 172.48 254.89 172.48 226.46 167.27 254.88 172.48"/><polygon class="cls-1" points="223.36 142.83 223.36 142.82 220.17 155.95 223.36 142.83"/><polygon class="cls-1" points="217.81 165.68 161.44 155.34 217.81 165.68 217.81 165.68"/><polygon class="cls-1" points="144.34 176.29 144.34 176.29 155.78 190.05 155.78 190.04 144.34 176.29 144.34 176.29"/><polygon class="cls-1" points="145.36 118.7 132.18 75.67 132.18 75.67 145.36 118.7 145.36 118.7"/><polygon class="cls-1" points="239.7 105.58 239.7 105.58 235.25 78.75 239.7 105.58"/><polygon class="cls-1" points="155.78 190.04 161.7 191.16 161.7 191.16 155.78 190.04"/><polygon class="cls-2" points="131.43 160.83 131.67 160.96 131.75 161 75.23 54.9 91.67 121.35 131.43 160.83"/><path class="cls-2" d="M133.9,159.09,175,118.7h0l35-34.41L232.5,62.13h0L210,84.29h0L175,118.7h39.47l25.26-13.12-4.45-26.83,4.45,26.83L246,49.42l0-.21-.44,0h0L189.36,55l-.19.36L211.9,58.9l-22.73-3.56-4.36,8.19-3.89,21.81,3.88-21.81Z"/><polygon class="cls-2" points="239.7 105.58 239.7 105.58 239.7 105.58 239.7 105.58"/><path class="cls-2" d="M133.9,159.09h0l-1.07,2,.09-.05,81.52-42.34H175Z"/><path class="cls-2" d="M21.44,74.78h0l9.94,6.59-9.94-6.59,3.45,30.72,5.67-5.7-5.67,5.7h0L102.77,146h0l28.65,14.88L91.67,121.35h0L75.23,54.9,19,49.17,50.15,80.11,19,49.17l-.44,0,0,.21Zm20.5,13.59,49.73,33-49.73-33Z"/><path class="cls-2" d="M131.78,163c.11,64.71-.73,89.14-2,92-.13.3-1.14,2.33-.29,3.53,0,0,.91,1.29,3.53.88,2.77-.44,3.88-21-1.15-96.66Z"/><path class="cls-2" d="M131.21,161.87h0L91.67,185.56l14.8,6.53h0v0L94,207.35h0l12.5-15.26-14.8-6.53L73.09,196.69l1.63,33.89,0,.27,8.71-10.65h0l-8.71,10.65.12,0,33.57-4.63h0L131.78,163v-1.42C131.59,161.65,131.4,161.76,131.21,161.87ZM83.45,220.2,73.36,197.3l10.09,22.9ZM94,207.35h0l14.46,18.85h0Z"/><polygon class="cls-2" points="191.12 196.69 165.89 202.2 189.48 230.58 191.12 196.69"/><polygon class="cls-2" points="165.89 202.2 165.89 202.2 165.89 202.2 165.89 202.2"/><polygon class="cls-2" points="165.89 202.2 161.7 191.16 155.78 190.04 165.89 202.2"/><path class="cls-2" d="M254.89,172.48h0l-28.42-5.21,28.43,5.21-31.53-29.66h0l-61.92,12.52,56.37,10.34h0l-56.37-10.34-29,5.87v0h0l0,.1,78.75,31.84L217,169l-5.87,24.17,7.42,3,2.42-26.8h0l-2.42,26.8L255,172.81l.14-.09Zm-31.53-29.65L220.17,156l3.19-13.12Z"/><path class="cls-2" d="M191.11,196.69l-35.33-21.17h0l-23.45-14.05,0,.1h0l-.06.17,8,9.61-8-9.61-.13.34q11.84,32.07,23.68,64.13h0l33.57,4.63.12,0v-.27L155.78,190h0l-11.44-13.76h0L155.78,190l5.92,1.12h0l4.19,11,25.22-5.51Z"/><path class="cls-2" d="M117.37,114.4h0l14.39,45.51-.11-43.32-8.7-1.33,8.7,1.34-.11-39.51.11,39.5.11,43.32.31,1,.61-.6,12.67-41.58h0l22-72.13L131.64,2.77l-.28-.35h0a1.83,1.83,0,0,0-.13.16L96,46.76l35.38,30.78L96,46.76Zm14.81-38.73,13.18,43h0l-13.18-43Z"/><path class="cls-2" d="M131.45,161.57l.32-.39h0l0,0-45.86-9.27,11.35,6.87h0l-11.35-6.87h0l-44.84-9.07,1.09,12.09h0l-1.09-12.09L29.17,154h0L9.53,172.48l-.26.24.14.08,20.5-1.94-20.5,1.95h0l14.48,9.28h0l22,14.08-1.62-18h0l1.62,18,43.29-23.63L45.86,196.17Zm-1-.48,1.31.09-34.52-2.42h0Zm-56.91-4h0l-29.08-2Zm-44-2.69,13.81,14.21h0Zm14.27,15.12.39,0h0l61.15-5.8,26.38-2.51h0l-26.38,2.51h0Z"/><path class="cls-2" d="M298.85,46.6h12.42V66.5h.16c.94-1.76,2-3.48,3-5.16l9-14.74h15.41L324,66.55l15.47,26.9H324.88l-9.85-19-3.76,4.79v14.2H298.85Z"/><path class="cls-2" d="M350.07,59.25l4.1,15.36c.49,1.9,1.08,4.4,1.5,6.08h.24c.42-1.77.87-4.27,1.23-6l3.13-15.4h13.36L366.32,81c-5.11,14.35-8.48,19.53-12.18,22.83a20,20,0,0,1-11.35,5L340.2,98.21a16.5,16.5,0,0,0,4.28-1.29,10.48,10.48,0,0,0,4-3.13,2.7,2.7,0,0,0,.64-1.54,4.46,4.46,0,0,0-.48-1.83l-12.5-31.17Z"/><path class="cls-2" d="M390.23,49.83c0,3.32-2.47,5.93-6.47,5.93-3.84,0-6.3-2.61-6.29-5.93s2.49-5.94,6.38-5.94S390.18,46.41,390.23,49.83ZM377.58,93.45V59.25h12.54v34.2Z"/><path class="cls-2" d="M408.12,59.25l3.7,14.51c.7,2.76,1.17,5.4,1.6,8.1h.25c.41-2.82.83-5.25,1.47-8.1l3.41-14.51h13.17L419.3,93.45H406.7l-12.18-34.2Z"/><path class="cls-2" d="M315,123.63h28.64v66c0,31.18-14.88,42.72-40.54,42.72-5.83,0-13.61-.79-19-2.57l3-23a47.43,47.43,0,0,0,12.61,1.78c9.21,0,15.24-4.08,15.24-18.84Z"/><path class="cls-2" d="M364.43,202.1a65.78,65.78,0,0,0,27.73,6.62c9.8,0,14.64-3.41,14.64-8.8,0-5.12-4.8-8.14-16.9-12.26-18-6.39-30-16.35-30-32.25,0-18.93,15.95-33.44,43-33.44,12.78,0,21.9,2.38,28.92,5.47l-6,22.89a56.44,56.44,0,0,0-23.24-5.08c-8.73,0-13.53,3.21-13.53,7.9,0,5.43,5.67,7.61,19.16,12.65,19.28,7.06,27.89,17.37,27.89,32.25,0,18.49-14.36,34.2-45.58,34.2-12.89,0-25.39-3.38-31.46-6.51Z"/></svg>