<svg xmlns="http://www.w3.org/2000/svg" viewBox="0 0 65.13 11.63"><defs><style>.cls-1{fill:#fff;fill-rule:evenodd;}</style></defs><title>Asset 3</title><g id="Layer_2" data-name="Layer 2"><g id="BG"><g id="Horizontal"><path class="cls-1" d="M22.72,1.72H21.11a.19.19,0,0,0-.21.17l-1,3.56q-.18.66-.28,1.22c0-.09,0-.18,0-.27l-.06-.27-.07-.29-.09-.36-1-3.6c-.05-.16-.14-.16-.25-.16H16.54c-.13,0-.16.07-.17.17l-.68,7.17c0,.13.06.17.19.17H17c.12,0,.2,0,.22-.16l.25-3.76q0-.35,0-.68t0-.63q.06.3.14.65t.17.64l1,3.79a.19.19,0,0,0,.2.16h1c.15,0,.19,0,.24-.16l1.17-4q.1-.35.16-.59T21.74,4q0,.3,0,.6t0,.65S22,8.4,22.07,9.1c0,.12.07.13.16.13h1.21c.08,0,.15,0,.13-.16-.11-1-.56-6.2-.65-7.19C22.9,1.75,22.86,1.72,22.72,1.72Zm6.13,2H27.63c-.13,0-.16,0-.19.14l-.81,2.5q-.07.19-.13.41t-.09.36l-.06.25-.06.29,0,.24,0,.11-.3-1.15L25,3.77a.18.18,0,0,0-.22-.14l-1.16.13c-.14,0-.16.09-.12.18l1.81,5.29h.38l-.09.21-.07.16-.07.14-.09.15a1.6,1.6,0,0,1-.42.45,1.74,1.74,0,0,1-.42.21l-.32.11a.14.14,0,0,0-.09.22l.35.65a.2.2,0,0,0,.24.1,3.64,3.64,0,0,0,.56-.15,2.58,2.58,0,0,0,.63-.33,1.61,1.61,0,0,0,.29-.26,2.55,2.55,0,0,0,.26-.36,4.75,4.75,0,0,0,.26-.51q.13-.3.28-.7l2-5.46C29,3.7,28.95,3.69,28.85,3.69Zm5.67-2H33.26c-.15,0-.17,0-.17.17V4.64H30.88V1.89c0-.16-.07-.18-.22-.17H29.53c-.16,0-.18.05-.18.18V9.06c0,.13.06.17.14.17h1.23c.09,0,.17,0,.17-.17V5.88h2.21V9.06a.16.16,0,0,0,.17.17H34.5c.1,0,.15-.06.15-.16V1.88C34.65,1.74,34.61,1.72,34.52,1.72Zm9,1.87-.27,0a1.26,1.26,0,0,0-.75.24,2.75,2.75,0,0,0-.57.55,1.84,1.84,0,0,0-.23-.79l-1.32.35a3.34,3.34,0,0,1,.15.65,6.79,6.79,0,0,1,.06,1V9.07a.15.15,0,0,0,.16.16h1.16c.09,0,.16,0,.16-.16V5.32a1.19,1.19,0,0,1,.9-.47,1,1,0,0,1,.23,0c.14,0,.22,0,.27-.12l.27-.85C43.77,3.7,43.67,3.63,43.49,3.59ZM44.8,1.27a.91.91,0,0,0-.66.26.85.85,0,0,0-.27.64.86.86,0,0,0,.26.64.88.88,0,0,0,.64.26.9.9,0,0,0,.65-.26.86.86,0,0,0,.26-.64.89.89,0,0,0-.89-.9Zm.58,2.31-1.2.18c-.14,0-.14.07-.14.15V9.08c0,.12.07.15.16.15h1.19c.1,0,.13,0,.13-.14V3.71C45.51,3.57,45.47,3.57,45.38,3.59Zm3.78,4.7-.16,0-.22,0a.6.6,0,0,1-.51-.18,1.34,1.34,0,0,1-.13-.71V4.69h.95l.3-.8c.05-.15,0-.2-.12-.2H48.14q0-.42,0-.86,0-.27,0-.51c0-.27-.16-.25-.28-.23l-1.19.29a5,5,0,0,0,0,.61q0,.29,0,.7h-.56v1h.56v3q0,.19,0,.32t0,.21a.74.74,0,0,0,0,.16l.06.16a1.09,1.09,0,0,0,.55.59,2,2,0,0,0,1,.22,3.16,3.16,0,0,0,1.1-.21A.12.12,0,0,0,49.48,9l-.14-.64C49.32,8.28,49.22,8.27,49.16,8.29Zm5.21.07a.94.94,0,0,1-.16-.27,1,1,0,0,1-.07-.31q0-.17,0-.39l0-1.86V5.15a1.74,1.74,0,0,0,0-.26l0-.19a1.07,1.07,0,0,0,0-.17,1.28,1.28,0,0,0-.63-.71,2.52,2.52,0,0,0-1.19-.25,3.77,3.77,0,0,0-.76.08,4.41,4.41,0,0,0-.79.25l-.5.22L50,4.24a.19.19,0,0,0-.08.27l.42.69a.2.2,0,0,0,.3.07,4.62,4.62,0,0,1,.68-.35A2.07,2.07,0,0,1,52,4.77a.63.63,0,0,1,.54.18,1.18,1.18,0,0,1,.13.64v.23h-.33a3.66,3.66,0,0,0-2,.46,1.62,1.62,0,0,0-.68,1.44A1.64,1.64,0,0,0,50.16,9a2.09,2.09,0,0,0,1.45.45,1.94,1.94,0,0,0,1.14-.3L52.91,9l.17-.16a1.2,1.2,0,0,0,.33.39,2.27,2.27,0,0,0,.27.18A.25.25,0,0,0,54,9.35c.15-.17.38-.42.51-.58a.16.16,0,0,0,0-.24A1.28,1.28,0,0,1,54.37,8.36ZM52.67,8a1.2,1.2,0,0,1-.36.28.92.92,0,0,1-.41.1.61.61,0,0,1-.47-.2.75.75,0,0,1-.18-.52.7.7,0,0,1,.3-.67,2.36,2.36,0,0,1,1.08-.17h.07Zm7-3.29a1.48,1.48,0,0,0,.55-.1,1.53,1.53,0,0,0,.35-.2.18.18,0,0,0,0-.27l-.37-.55c-.08-.14-.15-.18-.3-.08a1.89,1.89,0,0,1-.4.22,1.6,1.6,0,0,1-.61.12,1.53,1.53,0,0,1-.3,0l-.39-.09-.54-.11a3.44,3.44,0,0,0-.47,0,3.35,3.35,0,0,0-1,.14,2.28,2.28,0,0,0-.75.38,1.68,1.68,0,0,0-.65,1.36A1.44,1.44,0,0,0,56,7a2.49,2.49,0,0,0-.56.19,1.09,1.09,0,0,0-.31.23.6.6,0,0,0-.14.25,1,1,0,0,0,0,.26.86.86,0,0,0,.12.47.63.63,0,0,0,.31.26,4,4,0,0,0,1.36.17h.63a1.91,1.91,0,0,1,.74.15.51.51,0,0,1,.3.51.56.56,0,0,1-.1.32.81.81,0,0,1-.26.24,1.12,1.12,0,0,1-.41.15,3.24,3.24,0,0,1-.52,0,1.47,1.47,0,0,1-.79-.17.57.57,0,0,1-.27-.51,1.27,1.27,0,0,1,0-.19s0-.19-.11-.17h-1.2a1.73,1.73,0,0,0-.09.21,1.09,1.09,0,0,0,0,.35,1.29,1.29,0,0,0,.46,1,2.06,2.06,0,0,0,1,.47,5.57,5.57,0,0,0,1.18.12,4.77,4.77,0,0,0,1.26-.16,2.07,2.07,0,0,0,1-.55,1.6,1.6,0,0,0,.45-1.15,1.52,1.52,0,0,0-.49-1.18,1.68,1.68,0,0,0-.68-.38,4.21,4.21,0,0,0-1-.12h-.79q-.24,0-.24-.13a.28.28,0,0,1,.15-.22,2.92,2.92,0,0,1,.44-.23h.22a2.67,2.67,0,0,0,.83-.12A2.19,2.19,0,0,0,59,6.77a1.52,1.52,0,0,0,.44-.52,1.43,1.43,0,0,0,.15-.66,1.39,1.39,0,0,0-.08-.5,1.42,1.42,0,0,0-.25-.41l.17,0ZM57.17,6.27a1,1,0,0,1-.63-.18.71.71,0,0,1-.24-.61.79.79,0,0,1,.23-.61.92.92,0,0,1,.65-.22.94.94,0,0,1,.66.22.78.78,0,0,1,.24.61Q58.07,6.27,57.17,6.27Zm7.73.65c.26,0,.23-.34.23-.34a4.93,4.93,0,0,0-.18-1.45,2.35,2.35,0,0,0-.57-1,1.82,1.82,0,0,0-.71-.43,2.78,2.78,0,0,0-.93-.15,2.51,2.51,0,0,0-1,.18,2.31,2.31,0,0,0-.78.56,2.49,2.49,0,0,0-.54.93,4.2,4.2,0,0,0-.17,1.27,3.51,3.51,0,0,0,.19,1.18,2.56,2.56,0,0,0,.54.9,2.38,2.38,0,0,0,.84.58,2.86,2.86,0,0,0,1.1.21,3.3,3.3,0,0,0,2-.67.15.15,0,0,0,0-.23l-.38-.57c-.09-.15-.18-.11-.26-.06a2.19,2.19,0,0,1-1.29.44A1.12,1.12,0,0,1,62.17,8a1.45,1.45,0,0,1-.31-1v0Zm-3-1.08a1.47,1.47,0,0,1,.23-.89.77.77,0,0,1,.65-.31.74.74,0,0,1,.65.32,1,1,0,0,1,.14.34,2.53,2.53,0,0,1,0,.5v.06H61.88ZM39.82,5.13a2.35,2.35,0,0,0-.57-1,1.82,1.82,0,0,0-.71-.43,2.78,2.78,0,0,0-.93-.15,2.51,2.51,0,0,0-1,.18,2.32,2.32,0,0,0-.78.56,2.48,2.48,0,0,0-.54.93,4.2,4.2,0,0,0-.17,1.27,3.51,3.51,0,0,0,.19,1.18,2.56,2.56,0,0,0,.54.9,2.38,2.38,0,0,0,.84.58,2.86,2.86,0,0,0,1.1.21,3.3,3.3,0,0,0,2-.67.15.15,0,0,0,0-.23l-.38-.57c-.09-.15-.18-.11-.26-.06a2.19,2.19,0,0,1-1.29.44A1.12,1.12,0,0,1,37,8a1.45,1.45,0,0,1-.31-1v0h3c.26,0,.23-.34.23-.34A4.92,4.92,0,0,0,39.82,5.13Zm-1.35.73H36.76v0A1.47,1.47,0,0,1,37,4.94a.77.77,0,0,1,.65-.31.74.74,0,0,1,.65.32,1,1,0,0,1,.14.34,2.54,2.54,0,0,1,0,.5ZM7.91,0a5.4,5.4,0,0,1,0,10.76c4,.35,6.44-2.43,6.44-5.38S11.9-.31,7.91,0ZM1.52,5.41A5.38,5.38,0,0,1,6.44,0C2.5-.33,0,2.46,0,5.41A5.57,5.57,0,0,0,6.44,10.8,5.38,5.38,0,0,1,1.52,5.41Zm10.89,0A5.23,5.23,0,1,0,6.1,10.53c.79.16.9-1.86.68-3.19l-.32,0c-.16,0-.32.18-.42.22s-.2-.11-.32-.11a1.14,1.14,0,0,1-.65.09.73.73,0,0,1-.53-.44L4.43,7A.62.62,0,0,1,4,6.44c0-.22.36-.38.25-.45-.46-.29-.31-.52-.31-.53s.28-.49.2-.54.15-1,.47-1.22a1.22,1.22,0,0,1,.61-.79c0-.3.41-.47.41-.47.3-.09.09-.34.65-.3.13,0,.13-.14.46-.15a2.35,2.35,0,0,1,.49-.08c.51,0,.49.32.66.26s.93.28,1,1c.32,0,1.17.91,1.14,1.59.56.63-.2,1.22-.23,1.33a1.21,1.21,0,0,1,.09.57,1.29,1.29,0,0,1-.39.55c-.23.16-.4.35-.67.3s-.23-.31-.31-.37a1.06,1.06,0,0,1-.8.27l-.21,0c-.17,1-.14,3.18.55,3.18A5.28,5.28,0,0,0,12.41,5.41Z"/></g></g></g></svg>