<svg id="Layer_1" data-name="Layer 1" xmlns="http://www.w3.org/2000/svg" viewBox="0 0 1057.1 312.2"><defs><style>.cls-1{fill:#fff;}</style></defs><title>RK_neon_stickerArtboard 6</title><path class="cls-1" d="M464.05,127.57H434.68L412.17,92.66v34.91H388.58V36.81h36.71A35.89,35.89,0,0,1,438.53,39,25,25,0,0,1,453.4,54a31.17,31.17,0,0,1,1.86,10.84q0,10.35-5,16.79t-14.75,8.72Zm-51.88-50.2h4.46q7,0,10.71-2.88a9.88,9.88,0,0,0,3.73-8.31q0-5.42-3.73-8.3T416.63,55h-4.46Z"/><path class="cls-1" d="M490.17,100.37q0,14.07,13.24,14.08a11.84,11.84,0,0,0,10.72-5.78h21.06q-6.37,21.18-31.9,21.19A42,42,0,0,1,489,127.51a32,32,0,0,1-11.13-6.68,29.88,29.88,0,0,1-7.17-10.35A34.63,34.63,0,0,1,468.15,97a38.3,38.3,0,0,1,2.4-13.91,29.32,29.32,0,0,1,6.86-10.53,30.29,30.29,0,0,1,10.78-6.68,40.81,40.81,0,0,1,14.26-2.35,39.94,39.94,0,0,1,14.08,2.35,28.41,28.41,0,0,1,10.6,6.8,29.76,29.76,0,0,1,6.62,10.89A43.32,43.32,0,0,1,536,98.08v2.29Zm25.52-12.64a13.16,13.16,0,0,0-4.45-7.35,13.85,13.85,0,0,0-16.43-.12,12,12,0,0,0-4,7.47Z"/><path class="cls-1" d="M596.09,65.82H618v61.75H596.09v-6.86q-7,8.79-18.89,8.78A30.74,30.74,0,0,1,564.8,127a30,30,0,0,1-9.87-6.92,31.82,31.82,0,0,1-6.56-10.48A35.67,35.67,0,0,1,546,96.51a34.65,34.65,0,0,1,2.29-12.57,32.2,32.2,0,0,1,6.38-10.42,30.32,30.32,0,0,1,9.75-7A29.8,29.8,0,0,1,577,63.89,25.12,25.12,0,0,1,596.09,72ZM568.65,96.51a14.36,14.36,0,0,0,4,10.11,13.16,13.16,0,0,0,4.46,3,14.18,14.18,0,0,0,5.59,1.09,13.92,13.92,0,0,0,5.48-1.09,13,13,0,0,0,4.45-3,15.26,15.26,0,0,0,3-4.45,12.86,12.86,0,0,0,1.15-5.42,13.25,13.25,0,0,0-1.15-5.47,15.2,15.2,0,0,0-3-4.52,13.31,13.31,0,0,0-4.45-3,14.1,14.1,0,0,0-5.48-1.08,14.35,14.35,0,0,0-5.59,1.08,13.46,13.46,0,0,0-4.46,3,15.11,15.11,0,0,0-2.95,4.4A13.18,13.18,0,0,0,568.65,96.51Z"/><path class="cls-1" d="M679.39,85.8A20.13,20.13,0,0,0,668,82,15.58,15.58,0,0,0,662.12,83a14.43,14.43,0,0,0-4.76,3.07,14.18,14.18,0,0,0-3.19,4.7A15.49,15.49,0,0,0,653,96.87a15.18,15.18,0,0,0,1.14,6,14.65,14.65,0,0,0,3.13,4.7,13.89,13.89,0,0,0,4.76,3.07,16,16,0,0,0,5.89,1.08,18,18,0,0,0,11.44-4.21V126a38.49,38.49,0,0,1-15.29,3.49,36.21,36.21,0,0,1-12.82-2.28,32.62,32.62,0,0,1-10.71-6.56,32.14,32.14,0,0,1-7.4-10.23,31.16,31.16,0,0,1-2.77-13.3,33.22,33.22,0,0,1,2.65-13.43,32.07,32.07,0,0,1,7.22-10.47,32.77,32.77,0,0,1,10.89-6.86,37,37,0,0,1,13.54-2.47,32.49,32.49,0,0,1,14.69,3.37Z"/><path class="cls-1" d="M716.1,84v43.57H694.31V84h-7.22V65.82h7.22V47.28H716.1V65.82h12.4V84Z"/><path class="cls-1" d="M803.24,74.25,832,36.81h29.13l-36,43,39.36,47.79H833.94l-30.7-39.36v39.36H779.65V36.81h23.59Z"/><path class="cls-1" d="M887.74,119.14,857.89,65.82h25.28l16.49,31.66,16-31.66h25l-49.59,92.56H866.68Z"/><path class="cls-1" d="M946.72,42.11a11.91,11.91,0,0,1,1-4.76,12.52,12.52,0,0,1,6.56-6.56,12.26,12.26,0,0,1,9.51,0,12.52,12.52,0,0,1,6.56,6.56,12.14,12.14,0,0,1,0,9.51,12.52,12.52,0,0,1-6.56,6.56,12.14,12.14,0,0,1-9.51,0,12.52,12.52,0,0,1-6.56-6.56A11.86,11.86,0,0,1,946.72,42.11ZM970,65.82v61.75H948.17V65.82Z"/><path class="cls-1" d="M1003.17,65.82l14.69,31.66,14.92-31.66h24.32L1025,127.57h-14.57L978.62,65.82Z"/><path class="cls-1" d="M384.49,272l15.41-90.76h23.35l18.17,48.39,18.06-48.39h23.35L498.24,272H474.76l-7.82-52.24L445.52,272h-9.39l-20.35-52.24L408,272Z"/><path class="cls-1" d="M527.48,244.81q0,14.08,13.25,14.08a11.84,11.84,0,0,0,10.71-5.78H572.5q-6.37,21.19-31.9,21.19A42,42,0,0,1,526.28,272a32.05,32.05,0,0,1-11.13-6.68A29.88,29.88,0,0,1,508,254.92a34.6,34.6,0,0,1-2.52-13.48,38.08,38.08,0,0,1,2.41-13.91A29.19,29.19,0,0,1,514.73,217a30.39,30.39,0,0,1,10.77-6.68A40.85,40.85,0,0,1,539.76,208a40,40,0,0,1,14.09,2.35,28.58,28.58,0,0,1,10.59,6.8,29.59,29.59,0,0,1,6.62,10.9,43.22,43.22,0,0,1,2.28,14.5v2.29ZM553,232.17a13.1,13.1,0,0,0-4.45-7.34,13.81,13.81,0,0,0-16.43-.12,11.94,11.94,0,0,0-4,7.46Z"/><path class="cls-1" d="M605.36,244.81q0,14.08,13.24,14.08a11.81,11.81,0,0,0,10.71-5.78h21.07q-6.37,21.19-31.9,21.19A42,42,0,0,1,604.16,272,32,32,0,0,1,593,265.27a29.85,29.85,0,0,1-7.16-10.35,34.6,34.6,0,0,1-2.53-13.48,38.3,38.3,0,0,1,2.41-13.91A29.32,29.32,0,0,1,592.6,217a30.43,30.43,0,0,1,10.78-6.68A40.81,40.81,0,0,1,617.64,208a40,40,0,0,1,14.08,2.35,28.5,28.5,0,0,1,10.59,6.8,29.61,29.61,0,0,1,6.63,10.9,43.22,43.22,0,0,1,2.28,14.5v2.29Zm25.52-12.64a13.1,13.1,0,0,0-4.45-7.34,13.81,13.81,0,0,0-16.43-.12,12,12,0,0,0-4,7.46Z"/><path class="cls-1" d="M688.77,228.44V272H667V228.44h-7.23V210.26H667V191.72h21.78v18.54h12.4v18.18Z"/><path class="cls-1" d="M731.14,210.26v34.79q0,11.43,11.08,11.43t11.07-11.43V210.26h21.79v39q0,12.53-8.25,18.78t-24.61,6.26q-16.38,0-24.62-6.26t-8.24-18.78v-39Z"/><path class="cls-1" d="M811.67,302.82H789.88V210.26h21.79v6.86q7-8.77,19-8.78A29.63,29.63,0,0,1,843,210.92a31.52,31.52,0,0,1,9.93,7,31.92,31.92,0,0,1,6.56,10.48,35,35,0,0,1,2.35,12.88,34.05,34.05,0,0,1-2.35,12.75,32.65,32.65,0,0,1-6.5,10.36,29.81,29.81,0,0,1-22.09,9.51A25.69,25.69,0,0,1,811.67,266Zm27.44-61.5a14.82,14.82,0,0,0-1-5.48,13.22,13.22,0,0,0-3-4.51,14.64,14.64,0,0,0-4.52-3.07,14.09,14.09,0,0,0-11-.06,13.27,13.27,0,0,0-4.39,3,15,15,0,0,0-3,4.51,13.3,13.3,0,0,0-1.15,5.48,13.62,13.62,0,0,0,1.09,5.41,13.31,13.31,0,0,0,3,4.4,15.19,15.19,0,0,0,4.51,3,13.3,13.3,0,0,0,5.48,1.15,13.66,13.66,0,0,0,9.81-4.09,15.85,15.85,0,0,0,3-4.46A12.71,12.71,0,0,0,839.11,241.32Z"/><path class="cls-1" d="M915.18,226.15a25.4,25.4,0,0,0-11.8-3.13,8.87,8.87,0,0,0-4.87,1.2,3.7,3.7,0,0,0-1.87,3.25,4.27,4.27,0,0,0,.3,1.75,3.13,3.13,0,0,0,1.33,1.26,11,11,0,0,0,3,1.09c1.32.32,3.07.72,5.23,1.2q9,1.8,13.49,6.44a16.45,16.45,0,0,1,4.45,11.86,21.44,21.44,0,0,1-2.17,9.75,20.78,20.78,0,0,1-6,7.28,28.54,28.54,0,0,1-9.26,4.57,41.19,41.19,0,0,1-11.92,1.63,48.4,48.4,0,0,1-24.68-7.11l8-15.4q9.15,6.26,17.33,6.26a8.5,8.5,0,0,0,4.94-1.33,4,4,0,0,0,1.92-3.37,5.58,5.58,0,0,0-.3-2,3.25,3.25,0,0,0-1.26-1.45,10.26,10.26,0,0,0-2.83-1.2c-1.25-.36-2.87-.74-4.88-1.14q-10.11-2.06-14.14-6.08t-4-11.14A22,22,0,0,1,877,221a19.46,19.46,0,0,1,5.54-7,26,26,0,0,1,8.73-4.45A38.87,38.87,0,0,1,902.66,208a51.59,51.59,0,0,1,19.86,4Z"/><path class="cls-1" d="M288.51,100.24c-3.61-1.24-7.33-2.41-11.19-3.52.64-2.59,1.22-5.13,1.74-7.64,8.48-41.1,2.94-74.25-16-85.15-18.13-10.45-47.79.46-77.75,26.52q-4.33,3.77-8.65,7.94c-1.94-1.84-3.86-3.65-5.78-5.41C139.5,5.19,108-6.56,89.14,4.39,71,14.88,65.67,46,73.28,84.9q1.11,5.66,2.57,11.51C71.4,97.67,67.2,99,63,100.46c-36.8,12.91-60.31,33-60.31,53.89,0,21.63,25.22,43.15,63.56,56.24q4.55,1.56,9.39,2.95c-1.06,4.22-2,8.36-2.73,12.41-7.25,38.29-1.64,68.8,16.51,79.14,18.67,10.81,50-.31,80.49-27q3.62-3.15,7.25-6.68,4.73,4.55,9.39,8.65c29.55,25.42,58.73,35.7,76.78,25.25,18.64-10.82,24.7-43.46,16.83-83.2q-.92-4.54-2.17-9.31,3.31-1,6.49-2c39.9-13.3,65.86-34.66,65.86-56.48C350.32,133.41,326,113.18,288.51,100.24Zm-93.46-58.6c25.66-22.33,49.76-31.15,60.58-24.86,11.64,6.71,16.16,33.79,8.84,69.23q-.69,3.39-1.55,6.9a356.27,356.27,0,0,0-46.49-7.34A349.85,349.85,0,0,0,187.05,48.8Q191.07,45.13,195.05,41.64ZM113.19,154.71q6.75-14,14.8-28.12h0c5.37-9.3,11-18.28,16.85-26.82,10.34-.78,20.94-1.19,31.65-1.19h0q16.23,0,31.72,1.19C214,108.25,219.56,117.2,225,126.5s10.45,18.74,15,27.89c-4.52,9.3-9.52,18.73-14.92,28.12s-11,18.54-16.68,27c-10.32.74-21,1.13-31.85,1.13s-21.33-.3-31.47-1c-5.89-8.65-11.6-17.63-17-26.95h0C122.65,173.41,117.69,164,113.19,154.71Zm-7.87,17.46q4.67,9,9.86,18h0Q120.46,199.29,126,208a318.41,318.41,0,0,1-32-5.15C97.21,192.94,100.91,182.64,105.32,172.17Zm0-34.94c-4.33-10.25-8-20.33-11.06-30.07,9.91-2.16,20.49-4,31.52-5.4q-5.46,8.53-10.66,17.52h0q-5.15,8.89-9.82,17.95Zm132.5,52.83q5.33-9.21,10.08-18.41a315.73,315.73,0,0,1,11.69,30.59,315.93,315.93,0,0,1-32.45,5.54Q232.6,199.17,237.82,190.06Zm10-52.8q-4.7-9.09-10-18.09t-10.58-17.31c11.1,1.41,21.64,3.27,31.7,5.54q-4.81,15.19-11.12,29.86Zm-71.1-77.67A318,318,0,0,1,197.13,84.3q-10.19-.48-20.62-.5t-20.46.48C162.78,75.39,169.7,67.1,176.67,59.59Zm-80-42.35C108.22,10.51,134,20,161.05,44.17c1.73,1.54,3.46,3.15,5.21,4.82a357,357,0,0,0-29.62,36.65,363.2,363.2,0,0,0-46.38,7.2Q88.89,87.39,87.88,82c-6.55-33.28-2.2-58.48,8.7-64.79Zm-17,182c-3-.86-5.84-1.75-8.65-2.69-17-5.79-31-13.32-40.54-21.63-8.66-7.38-13-14.71-13-20.66,0-12.66,18.86-28.79,50.34-39.78q5.75-2,12-3.77a355.52,355.52,0,0,0,16.94,43.92A360.56,360.56,0,0,0,79.64,199.24Zm80.48,67.69c-13.48,11.79-27,20.16-38.94,24.36-10.71,3.78-19.24,3.89-24.38.9-11-6.31-15.54-30.74-9.31-63.49q1.07-5.62,2.53-11.53a349.39,349.39,0,0,0,46.86,6.77,363,363,0,0,0,29.83,36.78Q163.41,264,160.12,266.93Zm17-16.79c-7-7.59-14.07-16-20.92-25q10,.39,20.33.39t21-.48A317.21,317.21,0,0,1,177.08,250.14Zm90.19,20.66C265.1,282,261,289.4,255.89,292.43c-10.95,6.34-34.38-1.9-59.65-23.64q-4.32-3.75-8.65-8a348.75,348.75,0,0,0,29.14-37,346.26,346.26,0,0,0,47-7.31c.71,2.89,1.34,5.69,1.88,8.42,3.4,17.56,3.9,33.44,1.61,45.88Zm12.61-74.18c-1.91.63-3.85,1.24-5.84,1.82a349.56,349.56,0,0,0-17.61-44.05A347.48,347.48,0,0,0,273.34,111q5.36,1.55,10.34,3.27c32.17,11.08,51.79,27.45,51.79,40.07,0,13.45-21.2,30.91-55.61,42.31Z"/><polygon class="cls-1" points="220 144.85 201.87 134.49 185.36 148.55 195.98 126.79 175.52 106.97 155.03 126.79 165.65 148.55 149.15 134.49 131.02 144.85 140.71 167.09 158.34 167.09 146.59 172.35 146.59 191.81 166.3 190.91 173.35 176.04 173.35 201.96 177.68 201.96 177.68 176.04 184.71 190.91 204.44 191.81 204.44 172.35 192.67 167.09 210.31 167.09 220 144.85"/></svg>