<svg xmlns="http://www.w3.org/2000/svg" viewBox="0 0 70.78 9.71"><defs><style>.cls-1{fill:#fff;}</style></defs><title>Asset 2</title><g id="Layer_2" data-name="Layer 2"><g id="BG"><path class="cls-1" d="M11.21.17c-.39.2-.53.55-.53,1.49a1.52,1.52,0,0,1,.49-.3,2.08,2.08,0,0,0,.5-.27C12,.85,12,.54,12,0A2.13,2.13,0,0,0,11.21.17Z"/><path class="cls-1" d="M8.91.39a1.48,1.48,0,0,0-.41.72l-1,4.05L6.58,1.84A2.83,2.83,0,0,0,6.1.76a1.46,1.46,0,0,0-2,0,2.83,2.83,0,0,0-.48,1.08L2.74,5.16l-1-4.05A1.48,1.48,0,0,0,1.28.39,1.81,1.81,0,0,0,0,0L2,7.6a2.47,2.47,0,0,0,1-.12c.44-.22.64-.39.91-1.42s.89-3.62,1-3.81.07-.32.24-.32.21.23.24.32.72,2.89,1,3.81.47,1.2.91,1.42a2.47,2.47,0,0,0,1,.12l2-7.57A1.81,1.81,0,0,0,8.91.39Z"/><path class="cls-1" d="M12,1.27a1.23,1.23,0,0,1-.41.35c-.18.1-.36.17-.55.26a.57.57,0,0,0-.4.58v.48h0V7.6a1.73,1.73,0,0,0,.84-.1c.43-.22.52-.43.53-1.37V1.54h0Z"/><path class="cls-1" d="M17,3.84,19.59.06A2.26,2.26,0,0,0,18,.36a6.06,6.06,0,0,0-.72.87l-.94,1.35a.21.21,0,0,1-.4,0L15,1.22a6.06,6.06,0,0,0-.72-.87,2.26,2.26,0,0,0-1.61-.3l2.55,3.78L12.67,7.6a2.48,2.48,0,0,0,1.65-.34A5,5,0,0,0,15,6.45l.94-1.35a.21.21,0,0,1,.4,0l.94,1.35a5.72,5.72,0,0,0,.69.81,2.43,2.43,0,0,0,1.63.34Z"/><path class="cls-1" d="M25.45,7.21v.41H20.27V0H25.4V.41H20.74V3.46h4.38v.41H20.74V7.21Z"/><path class="cls-1" d="M26.18,2.13h.41V3.31h0a1.76,1.76,0,0,1,.3-.55,2,2,0,0,1,1-.67A2.36,2.36,0,0,1,28.58,2a2.51,2.51,0,0,1,.82.12,1.6,1.6,0,0,1,.55.31,1.5,1.5,0,0,1,.34.43,2,2,0,0,1,.18.49,2.89,2.89,0,0,1,.06.47c0,.15,0,.29,0,.4V7.62h-.41V4.15a5.05,5.05,0,0,0,0-.52A1.55,1.55,0,0,0,29.91,3a1.36,1.36,0,0,0-.47-.49,1.61,1.61,0,0,0-.87-.2,2,2,0,0,0-.83.17,1.79,1.79,0,0,0-.63.47,2.09,2.09,0,0,0-.39.73,3,3,0,0,0-.13.92v3h-.41Z"/><path class="cls-1" d="M36.27,2.13V7.33c0,.07,0,.18,0,.33a2.73,2.73,0,0,1-.07.5,2.47,2.47,0,0,1-.21.55,1.73,1.73,0,0,1-.41.51,2,2,0,0,1-.67.37,2.83,2.83,0,0,1-1,.12,3.59,3.59,0,0,1-.82-.09,1.93,1.93,0,0,1-.67-.29,1.49,1.49,0,0,1-.46-.52,1.85,1.85,0,0,1-.2-.81h.41a1.47,1.47,0,0,0,.18.62,1.3,1.3,0,0,0,.39.42,1.65,1.65,0,0,0,.54.24,2.65,2.65,0,0,0,.64.07,2.46,2.46,0,0,0,.81-.12,1.74,1.74,0,0,0,.55-.3,1.4,1.4,0,0,0,.34-.41,2.22,2.22,0,0,0,.18-.44,1.93,1.93,0,0,0,.07-.39c0-.12,0-.21,0-.27V6.16h0a2.05,2.05,0,0,1-2,1.25A2.46,2.46,0,0,1,32.8,7.2a2,2,0,0,1-.74-.58,2.48,2.48,0,0,1-.44-.86,3.77,3.77,0,0,1-.14-1.07,3.42,3.42,0,0,1,.15-1,2.57,2.57,0,0,1,.45-.86,2.19,2.19,0,0,1,.74-.59,2.28,2.28,0,0,1,1-.22,2.36,2.36,0,0,1,.63.09,2.22,2.22,0,0,1,.57.25,2,2,0,0,1,.47.39,1.81,1.81,0,0,1,.32.54h0V2.13Zm-2.42.22a1.78,1.78,0,0,0-.87.2,1.84,1.84,0,0,0-.61.53,2.42,2.42,0,0,0-.36.75,3,3,0,0,0-.12.86,3.31,3.31,0,0,0,.12.91,2.16,2.16,0,0,0,.37.75,1.82,1.82,0,0,0,.62.51,1.86,1.86,0,0,0,.85.19,1.9,1.9,0,0,0,.88-.19,1.82,1.82,0,0,0,.63-.52,2.28,2.28,0,0,0,.37-.75,3.27,3.27,0,0,0,0-1.78,2.22,2.22,0,0,0-.37-.75,1.84,1.84,0,0,0-.63-.52A1.9,1.9,0,0,0,33.86,2.36Z"/><path class="cls-1" d="M37.57,1.1V0H38V1.1Zm0,6.52V2.13H38V7.62Z"/><path class="cls-1" d="M39.27,2.13h.41V3.31h0a1.76,1.76,0,0,1,.3-.55,2,2,0,0,1,1-.67A2.36,2.36,0,0,1,41.66,2a2.51,2.51,0,0,1,.82.12,1.6,1.6,0,0,1,.55.31,1.5,1.5,0,0,1,.34.43,2,2,0,0,1,.18.49,2.89,2.89,0,0,1,.06.47c0,.15,0,.29,0,.4V7.62h-.41V4.15a5.05,5.05,0,0,0,0-.52A1.55,1.55,0,0,0,43,3a1.36,1.36,0,0,0-.47-.49,1.61,1.61,0,0,0-.87-.2,2,2,0,0,0-.83.17A1.79,1.79,0,0,0,40.2,3a2.09,2.09,0,0,0-.39.73,3,3,0,0,0-.13.92v3h-.41Z"/><path class="cls-1" d="M45,4.93a3.21,3.21,0,0,0,.11.93,2.32,2.32,0,0,0,.38.79,1.91,1.91,0,0,0,.64.54,1.87,1.87,0,0,0,.89.2A2,2,0,0,0,48.3,7,2,2,0,0,0,49,5.76h.41a2.32,2.32,0,0,1-.78,1.48,2.74,2.74,0,0,1-2.66.29,2.15,2.15,0,0,1-.76-.6A2.62,2.62,0,0,1,44.72,6,3.42,3.42,0,0,1,44.57,5a3.91,3.91,0,0,1,.13-1.1,2.85,2.85,0,0,1,.45-.95,2.3,2.3,0,0,1,.76-.67A2.22,2.22,0,0,1,47,2a2.47,2.47,0,0,1,1.11.23,2.14,2.14,0,0,1,.77.63,2.59,2.59,0,0,1,.43.93,3.75,3.75,0,0,1,.1,1.12Zm4-.35a2.77,2.77,0,0,0-.15-.83,2.19,2.19,0,0,0-.4-.71,2,2,0,0,0-.63-.49A1.84,1.84,0,0,0,47,2.36a1.7,1.7,0,0,0-.82.19,2,2,0,0,0-.61.51,2.52,2.52,0,0,0-.41.71,3,3,0,0,0-.18.81Z"/><path class="cls-1" d="M50.53,4.93a3.21,3.21,0,0,0,.11.93,2.32,2.32,0,0,0,.38.79,1.91,1.91,0,0,0,.64.54,1.87,1.87,0,0,0,.89.2A2,2,0,0,0,53.85,7a2,2,0,0,0,.67-1.2h.41a2.32,2.32,0,0,1-.78,1.48,2.74,2.74,0,0,1-2.66.29,2.15,2.15,0,0,1-.76-.6A2.62,2.62,0,0,1,50.27,6,3.42,3.42,0,0,1,50.12,5a3.91,3.91,0,0,1,.13-1.1,2.85,2.85,0,0,1,.45-.95,2.3,2.3,0,0,1,.76-.67A2.22,2.22,0,0,1,52.55,2a2.47,2.47,0,0,1,1.11.23,2.14,2.14,0,0,1,.77.63,2.59,2.59,0,0,1,.43.93A3.75,3.75,0,0,1,55,4.93Zm4-.35a2.77,2.77,0,0,0-.15-.83A2.19,2.19,0,0,0,54,3a2,2,0,0,0-.63-.49,1.84,1.84,0,0,0-.84-.19,1.7,1.7,0,0,0-.82.19,2,2,0,0,0-.61.51,2.52,2.52,0,0,0-.41.71,3,3,0,0,0-.18.81Z"/><path class="cls-1" d="M56.32,3.35h0a1.3,1.3,0,0,1,.28-.5,2.05,2.05,0,0,1,.48-.41,2.3,2.3,0,0,1,.63-.26,2.56,2.56,0,0,1,.72-.08v.41a1.93,1.93,0,0,0-.73.06,1.78,1.78,0,0,0-.79.47,3.81,3.81,0,0,0-.26.31,1.5,1.5,0,0,0-.19.33,2.08,2.08,0,0,0-.12.41,3.51,3.51,0,0,0-.05.53v3h-.41V2.13h.41Z"/><path class="cls-1" d="M59,1.1V0h.41V1.1Zm0,6.52V2.13h.41V7.62Z"/><path class="cls-1" d="M60.69,2.13h.41V3.31h0a1.76,1.76,0,0,1,.3-.55,2,2,0,0,1,1-.67A2.36,2.36,0,0,1,63.08,2a2.51,2.51,0,0,1,.82.12,1.6,1.6,0,0,1,.55.31,1.5,1.5,0,0,1,.34.43,2,2,0,0,1,.18.49,2.89,2.89,0,0,1,.06.47c0,.15,0,.29,0,.4V7.62h-.41V4.15a5.05,5.05,0,0,0,0-.52A1.55,1.55,0,0,0,64.41,3a1.36,1.36,0,0,0-.47-.49,1.61,1.61,0,0,0-.87-.2,2,2,0,0,0-.83.17,1.79,1.79,0,0,0-.63.47,2.09,2.09,0,0,0-.39.73,3,3,0,0,0-.13.92v3h-.41Z"/><path class="cls-1" d="M70.78,2.13V7.33c0,.07,0,.18,0,.33a2.73,2.73,0,0,1-.07.5,2.47,2.47,0,0,1-.21.55,1.73,1.73,0,0,1-.41.51,2,2,0,0,1-.67.37,2.83,2.83,0,0,1-1,.12,3.59,3.59,0,0,1-.82-.09,1.93,1.93,0,0,1-.67-.29,1.49,1.49,0,0,1-.46-.52,1.85,1.85,0,0,1-.2-.81h.41a1.47,1.47,0,0,0,.18.62,1.3,1.3,0,0,0,.39.42,1.65,1.65,0,0,0,.54.24,2.65,2.65,0,0,0,.64.07,2.46,2.46,0,0,0,.81-.12,1.74,1.74,0,0,0,.55-.3,1.4,1.4,0,0,0,.34-.41,2.22,2.22,0,0,0,.18-.44,1.93,1.93,0,0,0,.07-.39c0-.12,0-.21,0-.27V6.16h0a2.05,2.05,0,0,1-2,1.25,2.46,2.46,0,0,1-1.05-.21,2,2,0,0,1-.74-.58,2.48,2.48,0,0,1-.44-.86A3.77,3.77,0,0,1,66,4.7a3.42,3.42,0,0,1,.15-1,2.57,2.57,0,0,1,.45-.86,2.19,2.19,0,0,1,.74-.59,2.28,2.28,0,0,1,1-.22,2.36,2.36,0,0,1,.63.09,2.22,2.22,0,0,1,.57.25,2,2,0,0,1,.47.39,1.81,1.81,0,0,1,.32.54h0V2.13Zm-2.42.22a1.78,1.78,0,0,0-.87.2,1.84,1.84,0,0,0-.61.53,2.42,2.42,0,0,0-.36.75,3,3,0,0,0-.12.86,3.31,3.31,0,0,0,.12.91,2.16,2.16,0,0,0,.37.75,1.82,1.82,0,0,0,.62.51,1.86,1.86,0,0,0,.85.19,1.9,1.9,0,0,0,.88-.19,1.82,1.82,0,0,0,.63-.52,2.28,2.28,0,0,0,.37-.75,3.27,3.27,0,0,0,0-1.78,2.22,2.22,0,0,0-.37-.75,1.84,1.84,0,0,0-.63-.52A1.9,1.9,0,0,0,68.36,2.36Z"/></g></g></svg>