<?xml version="1.0" encoding="UTF-8"?>
<svg width="522px" height="280px" viewBox="0 0 522 280" version="1.1" xmlns="http://www.w3.org/2000/svg" xmlns:xlink="http://www.w3.org/1999/xlink">
    <!-- Generator: Sketch 46.2 (44496) - http://www.bohemiancoding.com/sketch -->
    <title>header menu</title>
    <desc>Created with Sketch.</desc>
    <defs>
        <filter x="-9.6%" y="-17.4%" width="123.6%" height="150.7%" filterUnits="objectBoundingBox" id="filter-1">
            <feOffset dx="10" dy="17" in="SourceAlpha" result="shadowOffsetOuter1"></feOffset>
            <feGaussianBlur stdDeviation="15.5" in="shadowOffsetOuter1" result="shadowBlurOuter1"></feGaussianBlur>
            <feColorMatrix values="0 0 0 0 0.391864049   0 0 0 0 0.442775365   0 0 0 0 0.611633716  0 0 0 1 0" type="matrix" in="shadowBlurOuter1" result="shadowMatrixOuter1"></feColorMatrix>
            <feMerge>
                <feMergeNode in="shadowMatrixOuter1"></feMergeNode>
                <feMergeNode in="SourceGraphic"></feMergeNode>
            </feMerge>
        </filter>
    </defs>
    <g id="Symbols" stroke="none" stroke-width="1" fill="none" fill-rule="evenodd">
        <g id="modules-hero" transform="translate(-550.000000, -163.000000)">
            <g id="header-menu" filter="url(#filter-1)" transform="translate(567.000000, 176.000000)">
                <g id="Group">
                    <polygon id="K" fill="#FFFFFF" points="332.258393 0 321.3427 0 287.839774 43.12656 287.839774 0 278.47037 0 278.47037 88.699104 287.839774 88.699104 287.839774 46.98864 327.398998 88.699104 339.732122 88.699104 297.724607 44.41392"></polygon>
                    <polygon id="Fill-1-Copy-2" fill="#FFFFFF" points="454.993412 1.728 432.710315 40.3295482 410.686068 1.728 399.544444 1.728 427.916727 50.9513431 427.916727 88.128 437.503604 88.128 437.503604 50.9513431 466.135185 1.728"></polygon>
                    <polygon id="I" fill="#FFFFFF" points="290.577778 131.736 290.577778 218.707104 299.947181 218.707104 299.947181 131.736"></polygon>
                    <polygon id="V" fill="#FFFFFF" points="403.003704 131.736 429.677187 218.707104 440.297978 218.707104 466.842604 131.736 457.215485 131.736 434.923154 204.803616 412.630822 131.736"></polygon>
                    <polygon id="Fill-1" fill="#05CF9D" points="55.4489675 1.728 33.1658706 40.3295482 11.1416234 1.728 0 1.728 28.3722822 50.9513431 28.3722822 88.128 37.9591593 88.128 37.9591593 50.9513431 66.5907407 1.728"></polygon>
                    <path d="M177.256348,44.3899822 L213.29664,44.3899822 L213.29664,46.4606842 C213.29664,56.0375688 210.444517,66.3907795 204.999597,73.767749 C202.4068,77.2618902 192.683696,89.2977147 172.848577,89.2977147 C147.179475,89.2977147 127.992593,69.7557077 127.992593,44.6488574 C127.992593,19.5420071 147.309212,0 173.107901,0 C181.404944,0 191.128047,2.07070202 199.554677,8.54153356 C203.443949,11.5182239 207.073895,15.4007527 209.537106,18.7655312 L202.4068,25.2363628 C199.943589,21.7420718 197.091467,18.6361685 194.239345,16.3065913 C190.090898,12.9418128 183.608829,9.05928393 173.237489,9.05928393 C152.36522,9.05928393 137.845284,24.7187621 137.845284,44.7783698 C137.845284,68.3321187 156.643404,80.2385805 172.978164,80.2385805 C184.516241,80.2385805 194.498669,74.4147124 199.42509,65.7438161 C200.980738,63.0261507 202.666124,58.8847466 202.925449,53.4492661 L177.256348,53.4492661 L177.256348,44.3899822 Z" id="Fill-2" fill="#05CF9D"></path>
                    <polygon id="Fill-5" fill="#05CF9D" points="153.937037 132.6 153.937037 219 163.620721 219 163.620721 176.253334 192.671621 176.253334 192.671621 167.185896 163.620721 167.185896 163.620721 141.667438 193.718519 141.667438 193.718519 132.6"></polygon>
                    <polygon id="Fill-6" fill="#05CF9D" points="21.6203704 132.6 21.6203704 219 55.3481481 219 55.3481481 209.932562 31.294235 209.932562 31.294235 132.6"></polygon>
                </g>
            </g>
        </g>
    </g>
</svg>